<svg xmlns="http://www.w3.org/2000/svg" xmlns:xlink="http://www.w3.org/1999/xlink" width="500" zoomAndPan="magnify" viewBox="0 0 375 374.999991" height="500" preserveAspectRatio="xMidYMid meet" version="1.0"><defs><g/><clipPath id="4fd5112969"><path d="M 149 49 L 230 49 L 230 103 L 149 103 Z M 149 49 " clip-rule="nonzero"/></clipPath><clipPath id="0dae9a6420"><path d="M 141.808594 77.835938 L 179.847656 25.746094 L 237.992188 68.207031 L 199.957031 120.296875 Z M 141.808594 77.835938 " clip-rule="nonzero"/></clipPath><clipPath id="b0d048df9e"><path d="M 141.808594 77.835938 L 179.847656 25.746094 L 237.992188 68.207031 L 199.957031 120.296875 Z M 141.808594 77.835938 " clip-rule="nonzero"/></clipPath><clipPath id="f10cf629f3"><path d="M 141.808594 77.835938 L 179.847656 25.746094 L 237.992188 68.207031 L 199.957031 120.296875 Z M 141.808594 77.835938 " clip-rule="nonzero"/></clipPath></defs><g fill="#b7d4ff" fill-opacity="1"><g transform="translate(274.105864, 301.615182)"><g><path d="M 19.292969 -109.792969 L 3.226562 -109.453125 L 6.640625 -12.433594 L 22.691406 -13.113281 Z M 19.292969 -109.792969 "/></g></g></g><g fill="#000000" fill-opacity="1"><g transform="translate(115.271479, 175.414438)"><g><path d="M 36.523438 3.371094 L 38.773438 3.371094 C 43.40625 2.527344 47.621094 0.84375 48.183594 -4.355469 C 48.746094 -9.410156 45.515625 -12.503906 40.457031 -12.363281 C 35.402344 -12.363281 34.558594 -15.453125 34.417969 -19.105469 C 34.136719 -25.003906 33.855469 -30.90625 33.292969 -36.804688 C 32.730469 -42.988281 33.714844 -47.480469 41.582031 -47.761719 C 45.9375 -47.761719 48.886719 -51.132812 48.464844 -55.910156 C 48.183594 -60.40625 44.8125 -63.074219 40.457031 -62.792969 C 34.417969 -62.089844 32.589844 -64.621094 33.292969 -70.097656 C 33.574219 -71.785156 33.574219 -73.1875 33.292969 -74.734375 C 33.011719 -78.527344 30.765625 -80.773438 27.394531 -81.054688 C 23.320312 -81.476562 20.371094 -79.792969 19.105469 -75.859375 C 18.683594 -74.03125 18.402344 -71.925781 18.542969 -69.957031 C 18.824219 -63.917969 16.71875 -60.546875 9.972656 -60.125 C 5.757812 -59.703125 2.667969 -57.175781 2.808594 -52.257812 C 2.949219 -47.761719 6.039062 -44.953125 10.535156 -45.234375 C 18.402344 -45.9375 18.402344 -41.019531 18.542969 -35.679688 C 18.542969 -28.097656 18.542969 -20.511719 19.246094 -13.203125 C 20.789062 -2.808594 27.535156 3.089844 36.523438 3.371094 Z M 36.523438 3.371094 "/></g></g></g><g fill="#000000" fill-opacity="1"><g transform="translate(160.504918, 175.414438)"><g><path d="M 57.175781 6.742188 C 61.8125 5.480469 61.949219 1.265625 61.949219 -2.667969 C 61.8125 -10.675781 61.949219 -18.542969 61.949219 -26.410156 L 61.8125 -26.410156 L 61.8125 -47.621094 C 61.8125 -49.589844 61.8125 -51.695312 61.671875 -53.664062 C 61.109375 -58.15625 59 -61.109375 54.363281 -61.25 C 49.589844 -61.671875 46.78125 -58.71875 46.21875 -54.363281 C 45.515625 -50.574219 45.65625 -46.640625 45.375 -42.707031 C 44.8125 -37.226562 44.109375 -31.75 43.6875 -26.128906 C 43.265625 -23.460938 42.144531 -20.789062 40.597656 -18.542969 C 37.789062 -14.609375 34.136719 -13.34375 29.359375 -13.625 C 24.722656 -13.765625 22.476562 -16.71875 21.210938 -20.648438 C 17.558594 -29.78125 18.542969 -39.335938 18.402344 -48.605469 C 18.402344 -55.066406 14.890625 -58.859375 10.394531 -58.4375 C 5.199219 -57.597656 3.230469 -54.226562 2.949219 -49.308594 C 2.808594 -40.597656 2.667969 -31.886719 4.355469 -23.460938 C 8.992188 -2.105469 19.527344 5.058594 40.597656 0.140625 C 43.6875 -0.421875 46.078125 -1.125 47.621094 2.246094 C 49.308594 6.601562 52.820312 8.148438 57.175781 6.742188 Z M 57.175781 6.742188 "/></g></g></g><g clip-path="url(#4fd5112969)"><g clip-path="url(#0dae9a6420)"><g clip-path="url(#b0d048df9e)"><g clip-path="url(#f10cf629f3)"><path fill="#000000" d="M 229.128906 61.789062 C 229.921875 65.128906 229.171875 68.179688 227.765625 71.261719 C 224.417969 78.65625 221.335938 86.183594 218.007812 93.59375 C 216.882812 96.042969 215.589844 98.394531 214.136719 100.632812 C 212.808594 102.695312 210.800781 103.296875 209.078125 102.519531 C 207.292969 101.695312 206.335938 99.617188 207.28125 97.246094 C 208.835938 93.34375 210.761719 89.589844 212.480469 85.746094 C 215.105469 79.921875 217.558594 74.039062 220.320312 68.316406 C 221.914062 64.976562 224.453125 62.363281 228.054688 61.03125 Z M 149.964844 66.671875 C 149.695312 69.804688 150.175781 72.824219 152.011719 75.394531 C 156.757812 82.039062 161.613281 88.617188 166.566406 95.140625 C 167.535156 96.417969 168.78125 97.480469 170.191406 98.238281 C 171.121094 98.738281 172.832031 98.878906 173.527344 98.335938 C 174.332031 97.691406 174.589844 96.140625 174.730469 94.957031 C 174.8125 94.265625 174.3125 93.421875 173.90625 92.734375 C 168.976562 84.691406 163.980469 76.695312 157.320312 69.945312 C 155.535156 68.128906 152.789062 67.265625 150.476562 65.964844 Z M 184.179688 56.019531 C 183.652344 64.304688 182.910156 72.550781 184.59375 80.828125 C 184.992188 82.800781 184.855469 84.890625 185.105469 86.902344 C 185.339844 88.695312 185.542969 90.523438 186.144531 92.222656 C 186.664062 93.742188 187.953125 94.742188 189.75 94.433594 C 191.441406 94.140625 192.230469 92.855469 192.351562 91.324219 C 192.617188 88.070312 192.996094 84.777344 192.796875 81.539062 C 192.359375 75.070312 191.597656 68.636719 190.921875 62.203125 C 190.65625 59.671875 190.375 57.125 190.007812 54.609375 C 189.714844 52.65625 189.105469 50.800781 187.128906 49.625 C 185.070312 51.332031 184.332031 53.582031 184.179688 56.019531 Z M 184.179688 56.019531 " fill-opacity="1" fill-rule="nonzero"/></g></g></g></g><g fill="#f45c58" fill-opacity="1"><g transform="translate(31.878779, 302.198799)"><g><path d="M 58.59375 -42.71875 L 42.570312 -41.039062 C 42.605469 -40.035156 42.46875 -39.023438 41.835938 -37.832031 C 41.371094 -36.644531 40.398438 -35.609375 39.417969 -34.910156 C 37.625 -33.34375 34.625 -32.914062 31.75 -33.828125 C 30.226562 -34.28125 28.867188 -34.910156 27.664062 -35.875 C 26.460938 -36.84375 25.421875 -37.980469 24.53125 -39.628906 C 22.589844 -42.75 21.460938 -46.730469 21.160156 -50.910156 C 20.863281 -54.917969 21.230469 -59.285156 22.457031 -62.839844 C 23.070312 -64.53125 23.855469 -66.230469 24.820312 -67.433594 C 25.78125 -68.804688 26.925781 -69.679688 28.078125 -70.386719 C 29.394531 -71.097656 30.722656 -71.472656 32.390625 -71.695312 C 32.558594 -71.699219 32.722656 -71.703125 32.890625 -71.710938 L 33.5625 -71.730469 L 34.230469 -71.753906 L 34.398438 -71.757812 C 34.738281 -71.601562 35.246094 -71.449219 35.917969 -71.304688 C 37.109375 -70.671875 38.480469 -69.710938 39.347656 -68.734375 C 39.871094 -68.082031 40.222656 -67.589844 40.402344 -67.257812 C 40.40625 -67.09375 40.40625 -67.09375 40.578125 -66.929688 C 40.578125 -66.929688 40.585938 -66.761719 40.585938 -66.761719 C 40.585938 -66.761719 40.589844 -66.597656 40.589844 -66.597656 C 40.589844 -66.597656 40.589844 -66.597656 40.757812 -66.601562 L 56.628906 -67.773438 C 56.542969 -70.449219 55.636719 -72.597656 54.738281 -74.578125 C 53.671875 -76.554688 52.617188 -78.03125 51.234375 -79.492188 C 48.800781 -82.261719 45.886719 -84.347656 42.320312 -85.910156 C 40.621094 -86.691406 38.761719 -87.300781 36.402344 -87.730469 L 35.566406 -87.703125 L 35.058594 -87.855469 L 34.722656 -87.84375 L 33.386719 -87.800781 L 32.046875 -87.757812 C 31.714844 -87.75 31.210938 -87.734375 30.710938 -87.71875 C 27.207031 -87.269531 23.554688 -86.316406 20.265625 -84.371094 C 16.972656 -82.59375 14.207031 -79.992188 11.957031 -77.074219 C 9.867188 -74.328125 8.289062 -71.265625 7.21875 -68.050781 C 6.144531 -65 5.574219 -61.800781 5.167969 -58.773438 C 4.933594 -55.585938 4.863281 -52.570312 5.132812 -49.394531 C 5.664062 -43.214844 7.363281 -37.074219 10.730469 -31.320312 C 12.496094 -28.363281 14.761719 -25.585938 17.679688 -23.335938 C 20.597656 -21.082031 23.835938 -19.34375 27.21875 -18.277344 C 30.761719 -17.386719 34.460938 -17 38.296875 -17.457031 C 40.125 -17.851562 42.121094 -18.25 43.941406 -18.976562 C 45.753906 -19.871094 47.570312 -20.765625 49.039062 -21.984375 C 50.671875 -23.210938 51.972656 -24.421875 53.265625 -25.972656 C 54.554688 -27.519531 55.511719 -29.054688 56.457031 -30.929688 C 58.023438 -34.328125 58.894531 -38.542969 58.59375 -42.71875 Z M 58.59375 -42.71875 "/></g></g></g><g fill="#afd480" fill-opacity="1"><g transform="translate(85.476348, 300.498791)"><g><path d="M 56.015625 -60.722656 C 55.855469 -65.742188 55.367188 -70.582031 54.878906 -75.421875 L 38.855469 -73.742188 C 39.820312 -64.394531 40.609375 -55.375 39.539062 -46.96875 C 39.273438 -44.785156 39 -42.765625 38.550781 -41.078125 C 38.242188 -40.230469 38.097656 -39.554688 37.785156 -38.875 C 37.472656 -38.195312 37.152344 -37.683594 36.832031 -37.171875 C 36.191406 -36.3125 35.375 -35.617188 34.226562 -34.910156 C 34.0625 -34.738281 33.730469 -34.730469 33.398438 -34.550781 L 32.902344 -34.367188 C 32.738281 -34.363281 32.570312 -34.355469 32.40625 -34.183594 C 31.910156 -34 31.410156 -33.984375 30.738281 -33.964844 C 29.742188 -33.765625 28.726562 -34.066406 27.707031 -34.539062 C 26.6875 -35.007812 25.65625 -35.8125 24.789062 -36.789062 C 23.921875 -37.765625 23.382812 -38.921875 23.011719 -40.082031 C 22.835938 -40.246094 22.832031 -40.410156 22.828125 -40.578125 L 22.820312 -40.746094 C 22.816406 -40.914062 22.648438 -40.90625 22.644531 -41.074219 L 22.421875 -42.742188 C 22.222656 -43.742188 22.023438 -44.738281 21.820312 -45.90625 C 20.707031 -54.578125 20.589844 -63.617188 20.960938 -73.007812 L 4.871094 -73.5 C 4.507812 -63.777344 4.488281 -53.894531 5.988281 -43.5625 C 6.191406 -42.394531 6.402344 -41.0625 6.609375 -39.730469 L 7.003906 -37.898438 C 7.007812 -37.734375 7.019531 -37.398438 7.023438 -37.230469 L 7.214844 -36.566406 L 7.585938 -35.40625 C 8.699219 -31.925781 10.300781 -28.960938 12.5625 -26.355469 C 14.820312 -23.746094 17.570312 -21.488281 20.96875 -19.921875 C 24.203125 -18.351562 28.074219 -17.636719 31.75 -17.921875 C 33.589844 -17.980469 35.421875 -18.371094 37.078125 -18.925781 C 37.578125 -18.941406 37.910156 -19.121094 38.40625 -19.304688 L 39.566406 -19.675781 C 40.390625 -20.035156 41.21875 -20.398438 41.871094 -20.921875 C 45 -22.527344 47.9375 -24.964844 50.023438 -27.878906 C 50.980469 -29.414062 51.765625 -30.945312 52.554688 -32.480469 C 53.175781 -34.007812 53.632812 -35.527344 54.085938 -37.050781 C 54.832031 -39.917969 55.25 -42.613281 55.503906 -45.132812 C 56.175781 -50.34375 56.171875 -55.703125 56.015625 -60.722656 Z M 56.015625 -60.722656 "/></g></g></g><g fill="#ec81a6" fill-opacity="1"><g transform="translate(137.830191, 311.792528)"><g><path d="M 80.785156 -55.8125 C 80.535156 -58.484375 80.109375 -61.320312 79.511719 -64.3125 C 79.082031 -67.3125 78.3125 -70.472656 76.867188 -73.773438 C 76.148438 -75.257812 75.261719 -76.90625 74.203125 -78.546875 C 73.847656 -79.207031 73.152344 -80.019531 72.628906 -80.671875 C 72.277344 -81.164062 71.933594 -81.488281 71.582031 -81.980469 C 71.238281 -82.304688 70.894531 -82.628906 70.378906 -82.945312 C 68.828125 -84.40625 66.945312 -85.683594 64.738281 -86.621094 C 62.53125 -87.554688 60 -88.144531 57.328125 -87.890625 C 55.15625 -87.824219 52.660156 -87.242188 50.519531 -86.167969 C 48.542969 -85.101562 46.746094 -83.703125 45.289062 -82.152344 C 44.644531 -81.292969 43.996094 -80.601562 43.355469 -79.746094 C 42.832031 -80.398438 42.136719 -81.214844 41.445312 -81.863281 C 39.898438 -83.152344 38.179688 -84.4375 35.976562 -85.371094 C 34.109375 -86.148438 31.921875 -86.414062 29.746094 -86.347656 C 28.746094 -86.316406 27.574219 -86.277344 26.582031 -85.910156 C 25.75 -85.71875 24.75 -85.519531 23.925781 -85.15625 C 22.433594 -84.609375 21.285156 -83.902344 20.140625 -83.027344 C 20.066406 -85.371094 19.996094 -87.542969 20.089844 -89.890625 L 4.007812 -90.050781 C 3.875 -78.492188 4.738281 -67.132812 5.589844 -56.109375 C 5.941406 -50.257812 6.460938 -44.414062 6.808594 -38.730469 C 6.664062 -38.058594 6.683594 -37.386719 6.707031 -36.71875 L 6.875 -36.722656 C 7.015625 -32.207031 7.15625 -27.855469 7.296875 -23.339844 L 23.375 -23.347656 C 23.375 -28.539062 23.042969 -33.71875 22.878906 -38.90625 C 23.160156 -45.949219 24.101562 -53.179688 25.558594 -60.089844 C 25.859375 -61.105469 25.996094 -62.113281 26.304688 -62.960938 C 26.4375 -63.96875 26.746094 -64.816406 26.894531 -65.492188 C 27.347656 -67.011719 27.980469 -68.207031 28.453125 -69.058594 C 28.777344 -69.402344 29.101562 -69.746094 29.269531 -69.753906 C 29.429688 -69.925781 29.761719 -70.105469 29.921875 -70.277344 C 30.089844 -70.28125 30.089844 -70.28125 30.257812 -70.285156 C 30.257812 -70.285156 30.429688 -70.125 30.429688 -70.125 C 30.601562 -69.964844 30.949219 -69.640625 31.132812 -69.140625 C 31.832031 -68.160156 32.382812 -66.671875 32.769531 -65.007812 C 33.164062 -63.179688 33.394531 -61.175781 33.625 -59.175781 C 33.859375 -57.003906 33.929688 -54.828125 34.171875 -52.492188 L 34.726562 -45.476562 C 34.964844 -43.308594 35.207031 -40.972656 35.273438 -38.796875 C 35.5 -36.960938 35.554688 -35.289062 35.605469 -33.617188 C 35.871094 -30.609375 35.960938 -27.765625 36.210938 -25.09375 L 52.261719 -25.9375 C 52.003906 -28.777344 51.914062 -31.621094 51.65625 -34.460938 C 51.585938 -36.636719 51.523438 -38.640625 51.460938 -40.648438 C 51.378906 -43.160156 51.476562 -45.339844 51.570312 -47.6875 C 51.535156 -48.859375 51.667969 -49.867188 51.800781 -51.042969 C 51.785156 -51.542969 51.929688 -52.21875 51.914062 -52.722656 L 52.195312 -54.40625 C 52.449219 -56.925781 52.882812 -59.113281 53.316406 -61.304688 C 53.75 -63.496094 54.355469 -65.523438 54.964844 -67.386719 C 55.582031 -69.082031 56.542969 -70.449219 57.023438 -71.136719 C 57.347656 -71.480469 57.675781 -71.660156 57.839844 -71.832031 C 57.839844 -71.832031 58.007812 -71.835938 58.339844 -71.847656 C 58.339844 -71.847656 58.339844 -71.847656 58.675781 -71.859375 C 58.847656 -71.695312 59.191406 -71.371094 59.707031 -71.054688 C 59.707031 -71.054688 59.878906 -70.890625 59.878906 -70.890625 C 60.050781 -70.730469 60.050781 -70.730469 60.222656 -70.566406 C 60.402344 -70.238281 60.578125 -69.910156 60.925781 -69.585938 C 61.28125 -68.925781 61.640625 -68.101562 62.003906 -67.273438 C 62.890625 -65.628906 63.289062 -63.632812 63.695312 -61.46875 C 64.269531 -59.140625 64.511719 -56.804688 64.761719 -54.132812 C 65.921875 -43.957031 66.074219 -33.914062 65.5625 -23.679688 L 81.503906 -22.679688 C 82.324219 -33.757812 81.972656 -44.800781 80.785156 -55.8125 Z M 80.785156 -55.8125 "/></g></g></g><g fill="#eeb13e" fill-opacity="1"><g transform="translate(216.292471, 300.501193)"><g><path d="M 54.839844 -60.851562 C 54.289062 -62.339844 53.742188 -63.664062 52.859375 -65.144531 C 52.503906 -65.800781 52.148438 -66.460938 51.625 -67.113281 C 51.445312 -67.441406 51.269531 -67.773438 50.925781 -68.097656 L 50.21875 -69.246094 C 47.957031 -71.851562 45.210938 -73.941406 42.148438 -75.519531 C 39.089844 -76.929688 36.050781 -77.671875 32.691406 -78.066406 C 29.5 -78.300781 26.328125 -78.03125 23.175781 -77.09375 C 22.34375 -76.902344 21.679688 -76.714844 21.023438 -76.359375 C 20.949219 -78.699219 20.867188 -81.207031 20.960938 -83.554688 L 4.886719 -83.546875 C 4.882812 -67.808594 5.050781 -51.90625 5.554688 -36.011719 C 5.886719 -20.28125 6.558594 -4.394531 7.390625 11.320312 L 23.441406 10.476562 C 22.902344 -1.230469 22.359375 -13.101562 21.988281 -24.8125 C 22.5 -24.492188 23.175781 -24.347656 23.679688 -24.195312 C 25.375 -23.578125 27.722656 -23.484375 29.234375 -23.367188 C 30.90625 -23.417969 32.574219 -23.640625 34.242188 -23.859375 C 37.566406 -24.636719 40.539062 -25.902344 43.164062 -27.660156 C 45.960938 -29.253906 48.238281 -31.335938 50.171875 -33.742188 C 52.109375 -35.980469 54.023438 -39.054688 54.929688 -42.097656 C 56.003906 -45.148438 56.574219 -48.347656 56.472656 -51.527344 C 56.371094 -54.703125 55.9375 -57.871094 54.839844 -60.851562 Z M 39.859375 -47.316406 C 39.394531 -46.128906 38.753906 -45.269531 37.789062 -44.066406 C 36.820312 -42.863281 35.679688 -41.824219 34.53125 -41.117188 C 33.382812 -40.410156 32.226562 -39.871094 31.0625 -39.667969 C 30.398438 -39.480469 29.894531 -39.464844 29.226562 -39.441406 C 29.058594 -39.4375 28.722656 -39.425781 28.550781 -39.589844 C 28.550781 -39.589844 28.382812 -39.582031 28.382812 -39.582031 C 28.21875 -39.578125 28.21875 -39.578125 28.050781 -39.574219 C 27.203125 -39.878906 26.011719 -40.511719 24.980469 -41.316406 C 23.945312 -42.289062 22.910156 -43.261719 22.203125 -44.410156 C 21.667969 -45.398438 21.46875 -46.398438 21.464844 -46.5625 L 21.296875 -46.558594 C 21.21875 -49.066406 21.3125 -51.414062 21.238281 -53.757812 L 21.402344 -53.761719 C 21.523438 -55.273438 21.820312 -56.457031 22.289062 -57.476562 C 22.761719 -58.496094 23.410156 -59.183594 24.21875 -60.046875 C 24.714844 -60.230469 25.203125 -60.75 25.863281 -60.9375 C 26.355469 -61.289062 27.019531 -61.476562 27.515625 -61.660156 C 28.675781 -62.03125 30.015625 -62.074219 31.359375 -61.949219 C 34.046875 -61.699219 36.425781 -60.601562 37.816406 -58.972656 C 37.820312 -58.804688 37.820312 -58.804688 37.996094 -58.644531 C 38 -58.476562 38.171875 -58.3125 38.34375 -58.152344 C 38.519531 -57.988281 38.695312 -57.660156 38.875 -57.332031 C 39.230469 -56.671875 39.414062 -56.175781 39.601562 -55.511719 C 40.144531 -54.191406 40.359375 -52.691406 40.402344 -51.351562 C 40.445312 -50.011719 40.152344 -48.664062 39.859375 -47.316406 Z M 39.859375 -47.316406 "/></g></g></g><g fill="#afd480" fill-opacity="1"><g transform="translate(295.759668, 302.190993)"><g><path d="M 40.832031 -37.800781 C 40.6875 -37.125 40.375 -36.445312 39.894531 -35.761719 C 39.574219 -35.25 39.089844 -34.730469 38.769531 -34.21875 C 38.277344 -33.867188 37.953125 -33.523438 37.621094 -33.511719 C 37.625 -33.34375 37.457031 -33.339844 37.289062 -33.335938 L 36.960938 -33.15625 L 36.464844 -32.972656 C 36.128906 -32.960938 35.96875 -32.789062 35.800781 -32.785156 L 35.136719 -32.597656 C 34.472656 -32.40625 33.636719 -32.382812 32.96875 -32.359375 C 31.460938 -32.3125 29.945312 -32.597656 28.582031 -33.394531 C 27.054688 -34.015625 25.679688 -35.144531 24.632812 -36.449219 C 23.425781 -37.582031 22.535156 -39.230469 21.984375 -40.71875 C 21.808594 -41.050781 21.796875 -41.382812 21.785156 -41.71875 L 21.613281 -41.878906 C 21.609375 -42.046875 21.601562 -42.214844 21.597656 -42.382812 C 21.59375 -42.550781 21.582031 -42.882812 21.402344 -43.214844 C 21.394531 -43.546875 21.382812 -43.882812 21.371094 -44.214844 C 28.214844 -44.9375 35.058594 -45.65625 41.90625 -46.207031 L 57.949219 -47.21875 C 57.898438 -48.890625 57.679688 -50.390625 57.460938 -52.058594 C 57.246094 -53.558594 56.863281 -55.054688 56.648438 -56.554688 C 55.890625 -59.378906 55.125 -62.367188 54.019531 -65.515625 C 53.46875 -67.003906 52.75 -68.65625 51.855469 -70.46875 C 51.507812 -70.792969 51.324219 -71.289062 50.976562 -71.78125 L 50.453125 -72.433594 L 50.273438 -72.765625 L 50.097656 -73.09375 C 49.40625 -73.742188 48.878906 -74.5625 48.1875 -75.210938 C 46.96875 -76.679688 45.417969 -77.96875 43.542969 -79.082031 C 41.660156 -80.359375 39.621094 -81.300781 37.429688 -81.734375 C 32.871094 -82.929688 28.699219 -82.460938 24.886719 -81.167969 C 22.898438 -80.601562 21.082031 -79.707031 19.273438 -78.644531 C 17.472656 -77.417969 16.003906 -76.199219 14.710938 -74.648438 C 11.960938 -71.714844 10.050781 -68.472656 8.816406 -65.253906 C 7.570312 -62.199219 6.496094 -59.152344 5.933594 -55.785156 C 5.367188 -52.585938 5.136719 -49.226562 5.238281 -46.050781 C 5.125 -44.371094 5.34375 -42.703125 5.5625 -41.035156 C 5.582031 -40.535156 5.589844 -40.199219 5.769531 -39.871094 C 5.777344 -39.535156 5.785156 -39.367188 5.789062 -39.203125 L 5.984375 -38.371094 C 6.183594 -37.371094 6.382812 -36.375 6.742188 -35.546875 C 8.035156 -31.738281 9.980469 -28.449219 12.582031 -25.683594 C 15.015625 -22.914062 18.105469 -20.5 21.507812 -18.769531 C 25.074219 -17.207031 29.128906 -16.164062 33.140625 -16.289062 C 34.980469 -16.347656 36.984375 -16.578125 38.980469 -16.976562 L 40.308594 -17.355469 C 40.804688 -17.539062 41.136719 -17.714844 41.636719 -17.730469 L 42.960938 -18.277344 L 43.617188 -18.632812 C 43.785156 -18.636719 44.121094 -18.648438 44.28125 -18.820312 C 46.425781 -19.894531 48.390625 -21.292969 49.851562 -22.679688 C 51.476562 -24.238281 52.769531 -25.789062 53.71875 -27.492188 C 54.664062 -29.363281 55.613281 -31.070312 56.226562 -32.929688 C 56.832031 -34.960938 57.269531 -36.984375 57.195312 -39.324219 L 41.277344 -39.65625 C 41.121094 -39.316406 41.144531 -38.480469 40.832031 -37.800781 Z M 26.28125 -63.628906 C 26.769531 -64.148438 27.421875 -64.671875 27.914062 -65.019531 C 28.570312 -65.378906 29.230469 -65.734375 29.894531 -65.921875 C 31.222656 -66.296875 32.726562 -66.347656 33.570312 -66.207031 C 34.414062 -65.898438 35.269531 -65.421875 36.476562 -64.289062 C 36.820312 -63.964844 37 -63.636719 37.34375 -63.3125 L 37.515625 -63.148438 C 37.523438 -62.980469 37.523438 -62.980469 37.523438 -62.980469 C 37.523438 -62.980469 37.523438 -62.980469 37.527344 -62.816406 C 37.695312 -62.820312 37.699219 -62.652344 37.871094 -62.492188 C 38.230469 -61.832031 38.589844 -61.007812 38.960938 -59.847656 C 38.960938 -59.847656 38.960938 -59.847656 38.964844 -59.679688 C 33.785156 -59.347656 28.445312 -58.84375 23.269531 -58.34375 C 23.429688 -58.515625 23.417969 -58.851562 23.574219 -59.191406 C 24.355469 -61.058594 25.308594 -62.59375 26.28125 -63.628906 Z M 26.28125 -63.628906 "/></g></g></g></svg>