<svg xmlns="http://www.w3.org/2000/svg" xmlns:xlink="http://www.w3.org/1999/xlink" width="800" zoomAndPan="magnify" viewBox="0 0 600 299.999988" height="400" preserveAspectRatio="xMidYMid meet" version="1.0"><defs><g/><clipPath id="a128bd9af6"><path d="M 98 57 L 186 57 L 186 116 L 98 116 Z M 98 57 " clip-rule="nonzero"/></clipPath><clipPath id="f7c2bb8fb5"><path d="M 89.746094 88.527344 L 131.324219 31.589844 L 194.921875 78.035156 L 153.34375 134.96875 Z M 89.746094 88.527344 " clip-rule="nonzero"/></clipPath><clipPath id="9ca3d47364"><path d="M 89.746094 88.527344 L 131.324219 31.589844 L 194.921875 78.035156 L 153.34375 134.96875 Z M 89.746094 88.527344 " clip-rule="nonzero"/></clipPath><clipPath id="b121355728"><path d="M 89.746094 88.527344 L 131.324219 31.589844 L 194.921875 78.035156 L 153.34375 134.96875 Z M 89.746094 88.527344 " clip-rule="nonzero"/></clipPath></defs><g fill="#000000" fill-opacity="1"><g transform="translate(60.636978, 195.567361)"><g><path d="M 40.066406 3.699219 L 42.53125 3.699219 C 47.617188 2.773438 52.242188 0.925781 52.855469 -4.777344 C 53.472656 -10.324219 49.929688 -13.714844 44.382812 -13.5625 C 38.832031 -13.5625 37.910156 -16.953125 37.753906 -20.957031 C 37.445312 -27.429688 37.136719 -33.902344 36.523438 -40.375 C 35.90625 -47.15625 36.984375 -52.085938 45.613281 -52.394531 C 50.390625 -52.394531 53.628906 -56.09375 53.164062 -61.332031 C 52.855469 -66.265625 49.160156 -69.191406 44.382812 -68.882812 C 37.753906 -68.113281 35.75 -70.886719 36.523438 -76.898438 C 36.832031 -78.746094 36.832031 -80.289062 36.523438 -81.980469 C 36.214844 -86.144531 33.75 -88.609375 30.050781 -88.917969 C 25.582031 -89.378906 22.34375 -87.53125 20.957031 -83.214844 C 20.496094 -81.210938 20.1875 -78.898438 20.339844 -76.742188 C 20.648438 -70.117188 18.339844 -66.417969 10.941406 -65.957031 C 6.316406 -65.492188 2.929688 -62.71875 3.082031 -57.324219 C 3.234375 -52.394531 6.625 -49.3125 11.558594 -49.621094 C 20.1875 -50.390625 20.1875 -44.996094 20.339844 -39.140625 C 20.339844 -30.820312 20.339844 -22.5 21.113281 -14.484375 C 22.808594 -3.082031 30.203125 3.390625 40.066406 3.699219 Z M 40.066406 3.699219 "/></g></g></g><g fill="#000000" fill-opacity="1"><g transform="translate(110.257084, 195.567361)"><g><path d="M 62.71875 7.398438 C 67.804688 6.011719 67.957031 1.386719 67.957031 -2.929688 C 67.804688 -11.710938 67.957031 -20.339844 67.957031 -28.972656 L 67.804688 -28.972656 L 67.804688 -52.242188 C 67.804688 -54.398438 67.804688 -56.710938 67.652344 -58.867188 C 67.035156 -63.796875 64.722656 -67.035156 59.636719 -67.1875 C 54.398438 -67.652344 51.316406 -64.414062 50.699219 -59.636719 C 49.929688 -55.476562 50.082031 -51.160156 49.773438 -46.847656 C 49.160156 -40.835938 48.386719 -34.828125 47.925781 -28.664062 C 47.464844 -25.734375 46.230469 -22.808594 44.535156 -20.339844 C 41.453125 -16.027344 37.445312 -14.640625 32.207031 -14.949219 C 27.121094 -15.101562 24.65625 -18.339844 23.269531 -22.652344 C 19.261719 -32.667969 20.339844 -43.148438 20.1875 -53.320312 C 20.1875 -60.40625 16.335938 -64.570312 11.402344 -64.105469 C 5.703125 -63.183594 3.542969 -59.484375 3.234375 -54.089844 C 3.082031 -44.535156 2.929688 -34.980469 4.777344 -25.734375 C 9.863281 -2.3125 21.421875 5.546875 44.535156 0.152344 C 47.925781 -0.460938 50.546875 -1.234375 52.242188 2.464844 C 54.089844 7.242188 57.941406 8.9375 62.71875 7.398438 Z M 62.71875 7.398438 "/></g></g></g><g clip-path="url(#a128bd9af6)"><g clip-path="url(#f7c2bb8fb5)"><g clip-path="url(#9ca3d47364)"><g clip-path="url(#b121355728)"><path fill="#000000" d="M 185.226562 71.011719 C 186.09375 74.660156 185.277344 77.996094 183.738281 81.367188 C 180.082031 89.449219 176.710938 97.679688 173.074219 105.777344 C 171.847656 108.457031 170.429688 111.027344 168.84375 113.472656 C 167.394531 115.730469 165.195312 116.386719 163.3125 115.535156 C 161.359375 114.632812 160.3125 112.359375 161.347656 109.769531 C 163.042969 105.503906 165.148438 101.398438 167.027344 97.199219 C 169.894531 90.832031 172.578125 84.398438 175.597656 78.140625 C 177.335938 74.492188 180.117188 71.636719 184.050781 70.183594 Z M 98.660156 76.324219 C 98.367188 79.75 98.894531 83.050781 100.902344 85.863281 C 106.09375 93.128906 111.40625 100.320312 116.820312 107.457031 C 117.882812 108.851562 119.246094 110.015625 120.785156 110.84375 C 121.804688 111.390625 123.675781 111.542969 124.4375 110.953125 C 125.3125 110.246094 125.59375 108.550781 125.75 107.253906 C 125.839844 106.5 125.292969 105.574219 124.851562 104.828125 C 119.453125 96.03125 113.988281 87.289062 106.707031 79.902344 C 104.753906 77.921875 101.75 76.972656 99.21875 75.550781 Z M 136.070312 64.6875 C 135.496094 73.746094 134.6875 82.761719 136.53125 91.8125 C 136.96875 93.96875 136.820312 96.253906 137.09375 98.457031 C 137.347656 100.410156 137.574219 102.410156 138.230469 104.269531 C 138.800781 105.929688 140.210938 107.027344 142.171875 106.6875 C 144.023438 106.367188 144.886719 104.964844 145.019531 103.289062 C 145.308594 99.730469 145.722656 96.132812 145.5 92.59375 C 145.019531 85.519531 144.183594 78.484375 143.445312 71.453125 C 143.15625 68.683594 142.84375 65.898438 142.445312 63.148438 C 142.125 61.011719 141.457031 58.984375 139.292969 57.699219 C 137.042969 59.5625 136.234375 62.023438 136.070312 64.6875 Z M 136.070312 64.6875 " fill-opacity="1" fill-rule="nonzero"/></g></g></g></g><g fill="#000000" fill-opacity="1"><g transform="translate(457.198723, 215.076936)"><g><path d="M 21.164062 -120.441406 L 3.539062 -120.066406 L 7.28125 -13.640625 L 24.894531 -14.382812 Z M 21.164062 -120.441406 "/></g></g></g><g fill="#000000" fill-opacity="1"><g transform="translate(191.51957, 216.401101)"><g><path d="M 64.273438 -46.859375 L 46.699219 -45.015625 C 46.734375 -43.914062 46.585938 -42.808594 45.890625 -41.5 C 45.382812 -40.199219 44.316406 -39.0625 43.238281 -38.292969 C 41.273438 -36.578125 37.980469 -36.105469 34.824219 -37.109375 C 33.15625 -37.605469 31.664062 -38.292969 30.347656 -39.351562 C 29.027344 -40.414062 27.886719 -41.664062 26.910156 -43.46875 C 24.78125 -46.890625 23.539062 -51.261719 23.210938 -55.84375 C 22.886719 -60.242188 23.285156 -65.03125 24.632812 -68.929688 C 25.308594 -70.789062 26.167969 -72.652344 27.226562 -73.972656 C 28.28125 -75.472656 29.539062 -76.433594 30.796875 -77.207031 C 32.242188 -77.988281 33.699219 -78.402344 35.527344 -78.644531 C 35.710938 -78.648438 35.894531 -78.65625 36.078125 -78.660156 L 37.546875 -78.707031 L 37.730469 -78.714844 C 38.105469 -78.542969 38.660156 -78.375 39.398438 -78.214844 C 40.707031 -77.523438 42.210938 -76.46875 43.164062 -75.394531 C 43.738281 -74.679688 44.121094 -74.140625 44.316406 -73.777344 C 44.324219 -73.59375 44.324219 -73.59375 44.511719 -73.417969 C 44.511719 -73.417969 44.519531 -73.234375 44.519531 -73.234375 C 44.519531 -73.234375 44.523438 -73.050781 44.523438 -73.050781 C 44.523438 -73.050781 44.523438 -73.050781 44.707031 -73.054688 L 62.117188 -74.34375 C 62.023438 -77.28125 61.03125 -79.636719 60.042969 -81.808594 C 58.871094 -83.976562 57.71875 -85.59375 56.199219 -87.199219 C 53.53125 -90.234375 50.335938 -92.523438 46.421875 -94.234375 C 44.558594 -95.09375 42.515625 -95.765625 39.929688 -96.234375 L 39.011719 -96.203125 L 38.457031 -96.371094 L 35.152344 -96.265625 C 34.785156 -96.253906 34.238281 -96.238281 33.6875 -96.21875 C 29.84375 -95.730469 25.835938 -94.683594 22.230469 -92.550781 C 18.617188 -90.597656 15.585938 -87.746094 13.117188 -84.546875 C 10.824219 -81.535156 9.09375 -78.171875 7.917969 -74.644531 C 6.738281 -71.300781 6.117188 -67.792969 5.671875 -64.472656 C 5.414062 -60.972656 5.335938 -57.664062 5.628906 -54.183594 C 6.210938 -47.40625 8.078125 -40.667969 11.769531 -34.355469 C 13.707031 -31.109375 16.191406 -28.066406 19.394531 -25.597656 C 22.59375 -23.125 26.144531 -21.21875 29.855469 -20.050781 C 33.746094 -19.070312 37.800781 -18.648438 42.007812 -19.148438 C 44.015625 -19.582031 46.207031 -20.019531 48.199219 -20.816406 C 50.191406 -21.796875 52.179688 -22.777344 53.789062 -24.117188 C 55.585938 -25.457031 57.011719 -26.789062 58.429688 -28.488281 C 59.84375 -30.1875 60.890625 -31.871094 61.929688 -33.925781 C 63.648438 -37.65625 64.601562 -42.277344 64.273438 -46.859375 Z M 64.273438 -46.859375 "/></g></g></g><g fill="#000000" fill-opacity="1"><g transform="translate(250.310454, 214.536376)"><g><path d="M 61.445312 -66.605469 C 61.269531 -72.113281 60.734375 -77.421875 60.199219 -82.730469 L 42.621094 -80.890625 C 43.683594 -70.636719 44.546875 -60.746094 43.371094 -51.523438 C 43.078125 -49.125 42.78125 -46.910156 42.289062 -45.058594 C 41.949219 -44.128906 41.789062 -43.390625 41.445312 -42.644531 C 41.101562 -41.898438 40.753906 -41.335938 40.402344 -40.773438 C 39.699219 -39.832031 38.804688 -39.070312 37.542969 -38.296875 C 37.367188 -38.105469 37 -38.09375 36.636719 -37.898438 L 36.09375 -37.699219 C 35.910156 -37.691406 35.726562 -37.6875 35.546875 -37.496094 C 35.003906 -37.296875 34.453125 -37.28125 33.71875 -37.257812 C 32.625 -37.039062 31.511719 -37.371094 30.394531 -37.886719 C 29.273438 -38.402344 28.144531 -39.285156 27.191406 -40.355469 C 26.238281 -41.425781 25.648438 -42.695312 25.242188 -43.96875 C 25.050781 -44.144531 25.046875 -44.328125 25.039062 -44.511719 L 25.035156 -44.695312 C 25.027344 -44.878906 24.84375 -44.875 24.839844 -45.058594 L 24.597656 -46.886719 C 24.378906 -47.980469 24.160156 -49.078125 23.933594 -50.355469 C 22.714844 -59.867188 22.585938 -69.78125 22.992188 -80.082031 L 5.339844 -80.625 C 4.945312 -69.957031 4.921875 -59.121094 6.566406 -47.785156 C 6.789062 -46.503906 7.019531 -45.042969 7.25 -43.582031 L 7.683594 -41.574219 C 7.6875 -41.390625 7.699219 -41.023438 7.707031 -40.839844 L 7.914062 -40.113281 L 8.320312 -38.839844 C 9.542969 -35.019531 11.300781 -31.769531 13.777344 -28.910156 C 16.257812 -26.046875 19.273438 -23.574219 23.003906 -21.855469 C 26.546875 -20.128906 30.796875 -19.34375 34.828125 -19.65625 C 36.847656 -19.722656 38.855469 -20.152344 40.671875 -20.761719 C 41.222656 -20.777344 41.582031 -20.972656 42.128906 -21.175781 L 43.402344 -21.582031 C 44.304688 -21.976562 45.210938 -22.375 45.929688 -22.949219 C 49.363281 -24.710938 52.585938 -27.382812 54.871094 -30.578125 C 55.921875 -32.265625 56.785156 -33.945312 57.648438 -35.628906 C 58.332031 -37.300781 58.828125 -38.972656 59.328125 -40.640625 C 60.148438 -43.789062 60.605469 -46.742188 60.882812 -49.507812 C 61.621094 -55.222656 61.617188 -61.101562 61.445312 -66.605469 Z M 61.445312 -66.605469 "/></g></g></g><g fill="#000000" fill-opacity="1"><g transform="translate(307.73337, 226.925714)"><g><path d="M 88.617188 -61.222656 C 88.339844 -64.152344 87.875 -67.261719 87.21875 -70.546875 C 86.746094 -73.839844 85.902344 -77.300781 84.316406 -80.925781 C 83.53125 -82.554688 82.554688 -84.359375 81.398438 -86.160156 C 81.007812 -86.882812 80.242188 -87.777344 79.667969 -88.492188 C 79.285156 -89.03125 78.90625 -89.386719 78.523438 -89.925781 C 78.144531 -90.28125 77.765625 -90.636719 77.203125 -90.988281 C 75.5 -92.585938 73.433594 -93.988281 71.011719 -95.015625 C 68.59375 -96.039062 65.816406 -96.6875 62.886719 -96.410156 C 60.5 -96.335938 57.765625 -95.695312 55.414062 -94.519531 C 53.246094 -93.347656 51.277344 -91.816406 49.675781 -90.113281 C 48.972656 -89.171875 48.261719 -88.414062 47.554688 -87.472656 C 46.980469 -88.191406 46.21875 -89.085938 45.460938 -89.796875 C 43.765625 -91.210938 41.882812 -92.621094 39.460938 -93.648438 C 37.414062 -94.5 35.015625 -94.792969 32.632812 -94.714844 C 31.53125 -94.679688 30.246094 -94.640625 29.15625 -94.238281 C 28.246094 -94.027344 27.148438 -93.808594 26.242188 -93.410156 C 24.609375 -92.808594 23.347656 -92.035156 22.09375 -91.074219 C 22.011719 -93.644531 21.9375 -96.03125 22.039062 -98.605469 L 4.398438 -98.78125 C 4.25 -86.101562 5.195312 -73.640625 6.128906 -61.546875 C 6.515625 -55.128906 7.089844 -48.71875 7.46875 -42.484375 C 7.308594 -41.746094 7.332031 -41.011719 7.355469 -40.277344 L 7.539062 -40.285156 C 7.695312 -35.328125 7.847656 -30.558594 8.003906 -25.601562 L 25.640625 -25.609375 C 25.640625 -31.304688 25.277344 -36.988281 25.097656 -42.675781 C 25.402344 -50.402344 26.4375 -58.332031 28.035156 -65.914062 C 28.367188 -67.027344 28.515625 -68.132812 28.851562 -69.0625 C 29 -70.171875 29.339844 -71.097656 29.5 -71.839844 C 29.996094 -73.507812 30.691406 -74.816406 31.210938 -75.75 C 31.566406 -76.128906 31.921875 -76.507812 32.105469 -76.515625 C 32.285156 -76.703125 32.644531 -76.898438 32.824219 -77.089844 C 33.007812 -77.09375 33.007812 -77.09375 33.191406 -77.101562 C 33.191406 -77.101562 33.378906 -76.921875 33.378906 -76.921875 C 33.570312 -76.746094 33.949219 -76.390625 34.148438 -75.84375 C 34.917969 -74.765625 35.519531 -73.132812 35.945312 -71.308594 C 36.375 -69.300781 36.628906 -67.105469 36.882812 -64.910156 C 37.140625 -62.53125 37.21875 -60.144531 37.484375 -57.582031 L 38.09375 -49.886719 C 38.355469 -47.507812 38.617188 -44.941406 38.695312 -42.558594 C 38.941406 -40.542969 39 -38.710938 39.058594 -36.875 C 39.347656 -33.578125 39.445312 -30.457031 39.722656 -27.527344 L 57.328125 -28.453125 C 57.042969 -31.566406 56.945312 -34.6875 56.664062 -37.800781 C 56.585938 -40.1875 56.515625 -42.386719 56.449219 -44.589844 C 56.359375 -47.34375 56.46875 -49.734375 56.570312 -52.308594 C 56.53125 -53.59375 56.679688 -54.699219 56.820312 -55.992188 C 56.804688 -56.539062 56.964844 -57.28125 56.945312 -57.832031 L 57.253906 -59.679688 C 57.535156 -62.441406 58.007812 -64.84375 58.484375 -67.25 C 58.960938 -69.652344 59.625 -71.875 60.292969 -73.917969 C 60.96875 -75.777344 62.023438 -77.28125 62.550781 -78.03125 C 62.90625 -78.410156 63.265625 -78.605469 63.445312 -78.792969 C 63.445312 -78.792969 63.628906 -78.800781 63.996094 -78.8125 C 63.996094 -78.8125 63.996094 -78.8125 64.363281 -78.824219 C 64.550781 -78.644531 64.929688 -78.289062 65.492188 -77.941406 C 65.492188 -77.941406 65.683594 -77.761719 65.683594 -77.761719 C 65.871094 -77.585938 65.871094 -77.585938 66.0625 -77.40625 C 66.253906 -77.046875 66.449219 -76.683594 66.828125 -76.328125 C 67.21875 -75.609375 67.617188 -74.703125 68.011719 -73.796875 C 68.988281 -71.988281 69.425781 -69.800781 69.867188 -67.425781 C 70.5 -64.875 70.765625 -62.3125 71.039062 -59.378906 C 72.3125 -48.214844 72.480469 -37.199219 71.917969 -25.976562 L 89.402344 -24.878906 C 90.300781 -37.03125 89.917969 -49.140625 88.617188 -61.222656 Z M 88.617188 -61.222656 "/></g></g></g><g fill="#000000" fill-opacity="1"><g transform="translate(393.808291, 214.539157)"><g><path d="M 60.152344 -66.75 C 59.550781 -68.382812 58.953125 -69.835938 57.984375 -71.457031 C 57.59375 -72.179688 57.203125 -72.902344 56.628906 -73.617188 C 56.433594 -73.980469 56.238281 -74.339844 55.859375 -74.695312 L 55.085938 -75.957031 C 52.605469 -78.816406 49.59375 -81.109375 46.234375 -82.839844 C 42.878906 -84.386719 39.546875 -85.199219 35.859375 -85.632812 C 32.359375 -85.890625 28.878906 -85.597656 25.421875 -84.566406 C 24.511719 -84.355469 23.78125 -84.148438 23.058594 -83.757812 C 22.976562 -86.328125 22.890625 -89.082031 22.992188 -91.65625 L 5.359375 -91.648438 C 5.355469 -74.378906 5.542969 -56.933594 6.09375 -39.503906 C 6.457031 -22.246094 7.195312 -4.820312 8.109375 12.417969 L 25.714844 11.492188 C 25.121094 -1.347656 24.527344 -14.371094 24.117188 -27.214844 C 24.679688 -26.867188 25.421875 -26.707031 25.976562 -26.539062 C 27.835938 -25.863281 30.410156 -25.761719 32.066406 -25.632812 C 33.902344 -25.691406 35.730469 -25.929688 37.5625 -26.171875 C 41.207031 -27.023438 44.46875 -28.414062 47.347656 -30.339844 C 50.414062 -32.089844 52.914062 -34.375 55.035156 -37.015625 C 57.160156 -39.46875 59.257812 -42.84375 60.253906 -46.179688 C 61.433594 -49.523438 62.058594 -53.035156 61.945312 -56.519531 C 61.835938 -60.007812 61.359375 -63.480469 60.152344 -66.75 Z M 43.726562 -51.902344 C 43.214844 -50.597656 42.511719 -49.660156 41.449219 -48.339844 C 40.390625 -47.019531 39.140625 -45.878906 37.878906 -45.101562 C 36.617188 -44.328125 35.351562 -43.738281 34.070312 -43.511719 C 33.34375 -43.304688 32.792969 -43.289062 32.058594 -43.265625 C 31.875 -43.257812 31.507812 -43.246094 31.320312 -43.425781 C 31.320312 -43.425781 31.136719 -43.417969 31.136719 -43.417969 C 30.953125 -43.414062 30.953125 -43.414062 30.769531 -43.40625 C 29.839844 -43.746094 28.53125 -44.4375 27.402344 -45.320312 C 26.265625 -46.386719 25.128906 -47.453125 24.355469 -48.714844 C 23.769531 -49.796875 23.550781 -50.894531 23.546875 -51.078125 L 23.363281 -51.070312 C 23.273438 -53.824219 23.375 -56.398438 23.296875 -58.96875 L 23.476562 -58.972656 C 23.609375 -60.632812 23.9375 -61.925781 24.453125 -63.046875 C 24.96875 -64.164062 25.679688 -64.921875 26.566406 -65.867188 C 27.109375 -66.070312 27.644531 -66.636719 28.371094 -66.84375 C 28.910156 -67.230469 29.640625 -67.433594 30.183594 -67.636719 C 31.457031 -68.042969 32.925781 -68.089844 34.398438 -67.953125 C 37.347656 -67.679688 39.957031 -66.476562 41.480469 -64.6875 C 41.488281 -64.503906 41.488281 -64.503906 41.675781 -64.328125 C 41.683594 -64.144531 41.871094 -63.964844 42.0625 -63.789062 C 42.25 -63.609375 42.445312 -63.25 42.640625 -62.886719 C 43.03125 -62.164062 43.234375 -61.621094 43.441406 -60.894531 C 44.035156 -59.441406 44.273438 -57.796875 44.320312 -56.328125 C 44.367188 -54.859375 44.046875 -53.378906 43.726562 -51.902344 Z M 43.726562 -51.902344 "/></g></g></g><g fill="#000000" fill-opacity="1"><g transform="translate(484.13733, 217.761314)"><g><path d="M 44.792969 -41.464844 C 44.632812 -40.726562 44.289062 -39.980469 43.761719 -39.230469 C 43.410156 -38.667969 42.878906 -38.097656 42.527344 -37.539062 C 41.992188 -37.152344 41.636719 -36.773438 41.269531 -36.761719 C 41.273438 -36.578125 41.089844 -36.574219 40.90625 -36.566406 L 40.546875 -36.371094 L 40 -36.171875 C 39.632812 -36.160156 39.457031 -35.96875 39.273438 -35.964844 L 38.542969 -35.757812 C 37.816406 -35.550781 36.898438 -35.523438 36.164062 -35.5 C 34.511719 -35.445312 32.851562 -35.761719 31.351562 -36.632812 C 29.675781 -37.3125 28.167969 -38.550781 27.019531 -39.984375 C 25.695312 -41.226562 24.71875 -43.035156 24.117188 -44.667969 C 23.921875 -45.03125 23.910156 -45.398438 23.898438 -45.765625 L 23.710938 -45.941406 C 23.703125 -46.125 23.699219 -46.308594 23.691406 -46.492188 C 23.6875 -46.675781 23.675781 -47.042969 23.480469 -47.402344 C 23.46875 -47.769531 23.457031 -48.136719 23.445312 -48.503906 C 30.949219 -49.292969 38.457031 -50.082031 45.96875 -50.6875 L 63.570312 -51.796875 C 63.511719 -53.632812 63.273438 -55.277344 63.035156 -57.109375 C 62.796875 -58.753906 62.378906 -60.394531 62.140625 -62.039062 C 61.308594 -65.136719 60.46875 -68.417969 59.257812 -71.867188 C 58.65625 -73.503906 57.863281 -75.3125 56.882812 -77.304688 C 56.503906 -77.660156 56.300781 -78.203125 55.917969 -78.742188 L 55.34375 -79.460938 L 54.953125 -80.179688 C 54.195312 -80.890625 53.617188 -81.792969 52.859375 -82.503906 C 51.523438 -84.113281 49.824219 -85.53125 47.765625 -86.75 C 45.699219 -88.15625 43.460938 -89.1875 41.058594 -89.660156 C 36.058594 -90.972656 31.480469 -90.457031 27.300781 -89.039062 C 25.117188 -88.421875 23.128906 -87.4375 21.144531 -86.273438 C 19.167969 -84.925781 17.554688 -83.585938 16.140625 -81.890625 C 13.117188 -78.671875 11.027344 -75.113281 9.667969 -71.582031 C 8.304688 -68.230469 7.125 -64.886719 6.507812 -61.195312 C 5.886719 -57.683594 5.636719 -54 5.746094 -50.515625 C 5.621094 -48.675781 5.863281 -46.84375 6.105469 -45.015625 C 6.121094 -44.464844 6.132812 -44.097656 6.328125 -43.738281 C 6.339844 -43.371094 6.34375 -43.1875 6.351562 -43.003906 L 6.5625 -42.089844 C 6.78125 -40.996094 7 -39.902344 7.398438 -38.996094 C 8.816406 -34.816406 10.949219 -31.207031 13.800781 -28.175781 C 16.46875 -25.136719 19.859375 -22.488281 23.59375 -20.585938 C 27.507812 -18.875 31.953125 -17.730469 36.355469 -17.871094 C 38.375 -17.933594 40.570312 -18.1875 42.761719 -18.625 L 44.21875 -19.039062 C 44.761719 -19.238281 45.125 -19.433594 45.675781 -19.449219 L 47.125 -20.046875 L 47.847656 -20.4375 C 48.03125 -20.445312 48.398438 -20.457031 48.574219 -20.644531 C 50.925781 -21.820312 53.082031 -23.359375 54.6875 -24.878906 C 56.46875 -26.589844 57.886719 -28.289062 58.929688 -30.160156 C 59.964844 -32.210938 61.007812 -34.082031 61.679688 -36.125 C 62.34375 -38.347656 62.824219 -40.570312 62.742188 -43.136719 L 45.277344 -43.503906 C 45.105469 -43.128906 45.136719 -42.210938 44.792969 -41.464844 Z M 28.832031 -69.800781 C 29.363281 -70.367188 30.082031 -70.941406 30.621094 -71.328125 C 31.34375 -71.71875 32.0625 -72.109375 32.792969 -72.316406 C 34.25 -72.726562 35.902344 -72.78125 36.824219 -72.625 C 37.753906 -72.289062 38.6875 -71.765625 40.011719 -70.523438 C 40.390625 -70.167969 40.585938 -69.804688 40.964844 -69.449219 L 41.15625 -69.273438 C 41.160156 -69.089844 41.160156 -69.089844 41.160156 -69.089844 C 41.160156 -69.089844 41.160156 -69.089844 41.167969 -68.90625 C 41.351562 -68.910156 41.355469 -68.730469 41.546875 -68.550781 C 41.9375 -67.828125 42.332031 -66.921875 42.738281 -65.648438 C 42.738281 -65.648438 42.738281 -65.648438 42.746094 -65.464844 C 37.0625 -65.101562 31.203125 -64.546875 25.523438 -64 C 25.703125 -64.191406 25.691406 -64.558594 25.863281 -64.929688 C 26.714844 -66.976562 27.765625 -68.664062 28.832031 -69.800781 Z M 28.832031 -69.800781 "/></g></g></g></svg>