<svg xmlns="http://www.w3.org/2000/svg" xmlns:xlink="http://www.w3.org/1999/xlink" width="500" zoomAndPan="magnify" viewBox="0 0 375 374.999991" height="500" preserveAspectRatio="xMidYMid meet" version="1.0"><defs><g/><clipPath id="7800fafd51"><path d="M 152 60 L 231 60 L 231 113 L 152 113 Z M 152 60 " clip-rule="nonzero"/></clipPath><clipPath id="e267c5be4d"><path d="M 144.984375 88.105469 L 182.136719 37.226562 L 238.46875 78.359375 L 201.3125 129.238281 Z M 144.984375 88.105469 " clip-rule="nonzero"/></clipPath><clipPath id="1cfe9b0068"><path d="M 144.984375 88.105469 L 182.136719 37.226562 L 238.46875 78.359375 L 201.3125 129.238281 Z M 144.984375 88.105469 " clip-rule="nonzero"/></clipPath><clipPath id="1269f9902e"><path d="M 144.984375 88.105469 L 182.136719 37.226562 L 238.46875 78.359375 L 201.3125 129.238281 Z M 144.984375 88.105469 " clip-rule="nonzero"/></clipPath></defs><g fill="#000000" fill-opacity="1"><g transform="translate(273.397884, 305.308806)"><g><path d="M 18.726562 -106.570312 L 3.132812 -106.238281 L 6.445312 -12.070312 L 22.027344 -12.726562 Z M 18.726562 -106.570312 "/></g></g></g><g fill="#000000" fill-opacity="1"><g transform="translate(119.22958, 182.815357)"><g><path d="M 35.453125 3.273438 L 37.632812 3.273438 C 42.132812 2.453125 46.222656 0.816406 46.769531 -4.226562 C 47.3125 -9.136719 44.179688 -12.136719 39.269531 -12 C 34.359375 -12 33.542969 -15 33.40625 -18.542969 C 33.132812 -24.269531 32.859375 -29.996094 32.316406 -35.722656 C 31.769531 -41.722656 32.722656 -46.085938 40.359375 -46.359375 C 44.585938 -46.359375 47.449219 -49.632812 47.042969 -54.269531 C 46.769531 -58.632812 43.496094 -61.222656 39.269531 -60.949219 C 33.40625 -60.265625 31.632812 -62.722656 32.316406 -68.039062 C 32.589844 -69.675781 32.589844 -71.039062 32.316406 -72.539062 C 32.042969 -76.21875 29.859375 -78.402344 26.589844 -78.675781 C 22.632812 -79.085938 19.769531 -77.449219 18.542969 -73.628906 C 18.136719 -71.855469 17.863281 -69.8125 18 -67.902344 C 18.269531 -62.039062 16.226562 -58.769531 9.679688 -58.359375 C 5.589844 -57.949219 2.589844 -55.496094 2.726562 -50.722656 C 2.863281 -46.359375 5.863281 -43.632812 10.226562 -43.90625 C 17.863281 -44.585938 17.863281 -39.816406 18 -34.632812 C 18 -27.269531 18 -19.90625 18.679688 -12.816406 C 20.179688 -2.726562 26.726562 3 35.453125 3.273438 Z M 35.453125 3.273438 "/></g></g></g><g fill="#000000" fill-opacity="1"><g transform="translate(163.134218, 182.815357)"><g><path d="M 55.496094 6.542969 C 59.996094 5.316406 60.132812 1.226562 60.132812 -2.589844 C 59.996094 -10.363281 60.132812 -18 60.132812 -25.632812 L 59.996094 -25.632812 L 59.996094 -46.222656 C 59.996094 -48.132812 59.996094 -50.175781 59.859375 -52.085938 C 59.3125 -56.449219 57.269531 -59.3125 52.769531 -59.449219 C 48.132812 -59.859375 45.40625 -56.996094 44.859375 -52.769531 C 44.179688 -49.085938 44.3125 -45.269531 44.042969 -41.449219 C 43.496094 -36.132812 42.816406 -30.816406 42.40625 -25.363281 C 41.996094 -22.769531 40.90625 -20.179688 39.40625 -18 C 36.679688 -14.179688 33.132812 -12.953125 28.496094 -13.226562 C 23.996094 -13.363281 21.816406 -16.226562 20.589844 -20.042969 C 17.042969 -28.90625 18 -38.179688 17.863281 -47.175781 C 17.863281 -53.449219 14.453125 -57.132812 10.089844 -56.722656 C 5.046875 -55.902344 3.136719 -52.632812 2.863281 -47.859375 C 2.726562 -39.40625 2.589844 -30.953125 4.226562 -22.769531 C 8.726562 -2.046875 18.953125 4.910156 39.40625 0.136719 C 42.40625 -0.410156 44.722656 -1.089844 46.222656 2.179688 C 47.859375 6.410156 51.269531 7.910156 55.496094 6.542969 Z M 55.496094 6.542969 "/></g></g></g><g clip-path="url(#7800fafd51)"><g clip-path="url(#e267c5be4d)"><g clip-path="url(#1cfe9b0068)"><g clip-path="url(#1269f9902e)"><path fill="#000000" d="M 229.882812 72.140625 C 230.640625 75.386719 229.898438 78.363281 228.519531 81.371094 C 225.242188 88.585938 222.214844 95.929688 218.953125 103.160156 C 217.851562 105.550781 216.585938 107.847656 215.164062 110.03125 C 213.867188 112.046875 211.914062 112.640625 210.242188 111.890625 C 208.511719 111.09375 207.589844 109.074219 208.519531 106.761719 C 210.042969 102.953125 211.929688 99.289062 213.613281 95.539062 C 216.183594 89.855469 218.59375 84.113281 221.300781 78.53125 C 222.859375 75.273438 225.339844 72.71875 228.839844 71.40625 Z M 152.949219 77.199219 C 152.675781 80.253906 153.132812 83.195312 154.90625 85.691406 C 159.488281 92.144531 164.183594 98.53125 168.96875 104.867188 C 169.90625 106.109375 171.113281 107.136719 172.476562 107.871094 C 173.382812 108.355469 175.042969 108.484375 175.722656 107.953125 C 176.503906 107.324219 176.757812 105.8125 176.902344 104.65625 C 176.984375 103.980469 176.5 103.160156 176.109375 102.496094 C 171.347656 94.679688 166.527344 86.910156 160.085938 80.359375 C 158.355469 78.601562 155.691406 77.765625 153.449219 76.511719 Z M 186.230469 66.695312 C 185.6875 74.765625 184.9375 82.800781 186.539062 90.859375 C 186.921875 92.777344 186.777344 94.8125 187.015625 96.773438 C 187.234375 98.515625 187.425781 100.296875 188 101.945312 C 188.5 103.425781 189.75 104.398438 191.496094 104.089844 C 193.140625 103.796875 193.910156 102.542969 194.035156 101.050781 C 194.304688 97.878906 194.6875 94.671875 194.503906 91.519531 C 194.105469 85.21875 193.390625 78.953125 192.757812 72.691406 C 192.511719 70.226562 192.246094 67.746094 191.902344 65.296875 C 191.625 63.394531 191.039062 61.589844 189.121094 60.453125 C 187.113281 62.121094 186.386719 64.316406 186.230469 66.695312 Z M 186.230469 66.695312 " fill-opacity="1" fill-rule="nonzero"/></g></g></g></g><g fill="#000000" fill-opacity="1"><g transform="translate(38.286569, 305.875278)"><g><path d="M 56.875 -41.464844 L 41.320312 -39.832031 C 41.351562 -38.859375 41.222656 -37.878906 40.609375 -36.722656 C 40.15625 -35.570312 39.214844 -34.5625 38.257812 -33.882812 C 36.519531 -32.367188 33.605469 -31.949219 30.816406 -32.835938 C 29.339844 -33.277344 28.019531 -33.882812 26.851562 -34.820312 C 25.683594 -35.761719 24.675781 -36.867188 23.8125 -38.464844 C 21.925781 -41.492188 20.828125 -45.359375 20.539062 -49.414062 C 20.25 -53.304688 20.605469 -57.542969 21.796875 -60.992188 C 22.394531 -62.636719 23.15625 -64.285156 24.09375 -65.453125 C 25.027344 -66.785156 26.136719 -67.632812 27.253906 -68.316406 C 28.53125 -69.007812 29.820312 -69.375 31.4375 -69.589844 C 31.601562 -69.59375 31.761719 -69.597656 31.925781 -69.605469 L 33.222656 -69.644531 L 33.386719 -69.648438 C 33.714844 -69.496094 34.207031 -69.351562 34.863281 -69.210938 C 36.019531 -68.597656 37.351562 -67.664062 38.195312 -66.714844 C 38.699219 -66.082031 39.042969 -65.601562 39.214844 -65.285156 C 39.21875 -65.121094 39.21875 -65.121094 39.386719 -64.964844 C 39.386719 -64.964844 39.390625 -64.800781 39.390625 -64.800781 C 39.390625 -64.800781 39.398438 -64.640625 39.398438 -64.640625 C 39.398438 -64.640625 39.398438 -64.640625 39.558594 -64.644531 L 54.964844 -65.785156 C 54.882812 -68.382812 54.003906 -70.464844 53.128906 -72.390625 C 52.09375 -74.308594 51.074219 -75.738281 49.726562 -77.15625 C 47.367188 -79.84375 44.539062 -81.867188 41.078125 -83.382812 C 39.429688 -84.144531 37.621094 -84.738281 35.332031 -85.152344 L 34.519531 -85.128906 L 34.027344 -85.273438 L 33.703125 -85.265625 L 32.40625 -85.222656 L 31.105469 -85.179688 C 30.78125 -85.171875 30.292969 -85.15625 29.808594 -85.140625 C 26.40625 -84.707031 22.859375 -83.78125 19.671875 -81.894531 C 16.472656 -80.167969 13.792969 -77.644531 11.605469 -74.808594 C 9.578125 -72.144531 8.046875 -69.171875 7.007812 -66.050781 C 5.964844 -63.089844 5.410156 -59.984375 5.015625 -57.046875 C 4.789062 -53.953125 4.71875 -51.023438 4.980469 -47.945312 C 5.496094 -41.945312 7.148438 -35.984375 10.414062 -30.398438 C 12.128906 -27.527344 14.328125 -24.835938 17.160156 -22.648438 C 19.992188 -20.464844 23.136719 -18.777344 26.417969 -17.742188 C 29.859375 -16.875 33.445312 -16.503906 37.171875 -16.945312 C 38.945312 -17.328125 40.886719 -17.714844 42.652344 -18.417969 C 44.410156 -19.289062 46.171875 -20.15625 47.597656 -21.339844 C 49.183594 -22.527344 50.449219 -23.707031 51.699219 -25.207031 C 52.953125 -26.710938 53.878906 -28.203125 54.796875 -30.019531 C 56.320312 -33.320312 57.164062 -37.410156 56.875 -41.464844 Z M 56.875 -41.464844 "/></g></g></g><g fill="#000000" fill-opacity="1"><g transform="translate(90.30962, 304.225218)"><g><path d="M 54.367188 -58.9375 C 54.214844 -63.808594 53.738281 -68.507812 53.265625 -73.207031 L 37.714844 -71.574219 C 38.652344 -62.503906 39.417969 -53.75 38.375 -45.589844 C 38.117188 -43.46875 37.855469 -41.511719 37.417969 -39.871094 C 37.121094 -39.046875 36.980469 -38.394531 36.675781 -37.734375 C 36.371094 -37.074219 36.0625 -36.578125 35.75 -36.078125 C 35.128906 -35.246094 34.335938 -34.570312 33.21875 -33.886719 C 33.0625 -33.71875 32.738281 -33.707031 32.417969 -33.535156 L 31.9375 -33.359375 C 31.773438 -33.351562 31.613281 -33.347656 31.457031 -33.179688 C 30.972656 -33.003906 30.484375 -32.988281 29.835938 -32.964844 C 28.867188 -32.773438 27.882812 -33.066406 26.894531 -33.523438 C 25.902344 -33.980469 24.902344 -34.761719 24.0625 -35.707031 C 23.21875 -36.65625 22.695312 -37.777344 22.335938 -38.90625 C 22.167969 -39.0625 22.160156 -39.222656 22.15625 -39.386719 L 22.152344 -39.550781 C 22.144531 -39.710938 21.984375 -39.707031 21.976562 -39.867188 L 21.765625 -41.488281 C 21.570312 -42.457031 21.378906 -43.425781 21.179688 -44.558594 C 20.101562 -52.976562 19.984375 -61.75 20.34375 -70.863281 L 4.726562 -71.339844 C 4.375 -61.902344 4.355469 -52.3125 5.8125 -42.28125 C 6.007812 -41.148438 6.210938 -39.855469 6.417969 -38.5625 L 6.796875 -36.785156 C 6.800781 -36.625 6.8125 -36.300781 6.816406 -36.136719 L 7 -35.492188 L 7.363281 -34.367188 C 8.445312 -30.988281 10 -28.109375 12.191406 -25.578125 C 14.386719 -23.050781 17.054688 -20.859375 20.355469 -19.335938 C 23.492188 -17.8125 27.25 -17.117188 30.816406 -17.394531 C 32.605469 -17.449219 34.378906 -17.832031 35.988281 -18.371094 C 36.476562 -18.386719 36.796875 -18.558594 37.277344 -18.738281 L 38.402344 -19.097656 C 39.203125 -19.449219 40.007812 -19.796875 40.640625 -20.304688 C 43.679688 -21.863281 46.53125 -24.230469 48.554688 -27.058594 C 49.480469 -28.550781 50.246094 -30.039062 51.011719 -31.523438 C 51.617188 -33.007812 52.054688 -34.484375 52.496094 -35.960938 C 53.222656 -38.746094 53.625 -41.359375 53.875 -43.804688 C 54.527344 -48.867188 54.523438 -54.066406 54.367188 -58.9375 Z M 54.367188 -58.9375 "/></g></g></g><g fill="#000000" fill-opacity="1"><g transform="translate(141.125515, 315.18713)"><g><path d="M 78.414062 -54.175781 C 78.167969 -56.765625 77.753906 -59.515625 77.175781 -62.425781 C 76.757812 -65.335938 76.011719 -68.402344 74.609375 -71.609375 C 73.914062 -73.046875 73.050781 -74.644531 72.023438 -76.238281 C 71.679688 -76.878906 71.003906 -77.667969 70.496094 -78.304688 C 70.15625 -78.78125 69.820312 -79.09375 69.480469 -79.570312 C 69.144531 -79.886719 68.808594 -80.199219 68.3125 -80.511719 C 66.804688 -81.925781 64.976562 -83.167969 62.835938 -84.074219 C 60.695312 -84.980469 58.238281 -85.554688 55.644531 -85.308594 C 53.535156 -85.242188 51.113281 -84.679688 49.035156 -83.636719 C 47.117188 -82.601562 45.371094 -81.246094 43.957031 -79.738281 C 43.332031 -78.90625 42.703125 -78.234375 42.082031 -77.402344 C 41.574219 -78.035156 40.898438 -78.828125 40.226562 -79.457031 C 38.726562 -80.710938 37.058594 -81.957031 34.917969 -82.863281 C 33.105469 -83.621094 30.984375 -83.878906 28.875 -83.808594 C 27.898438 -83.777344 26.761719 -83.742188 25.800781 -83.386719 C 24.992188 -83.199219 24.023438 -83.007812 23.222656 -82.65625 C 21.777344 -82.121094 20.660156 -81.4375 19.550781 -80.589844 C 19.476562 -82.863281 19.410156 -84.972656 19.5 -87.25 L 3.890625 -87.40625 C 3.761719 -76.1875 4.597656 -65.160156 5.425781 -54.460938 C 5.765625 -48.78125 6.273438 -43.109375 6.609375 -37.59375 C 6.46875 -36.9375 6.488281 -36.289062 6.507812 -35.640625 L 6.671875 -35.644531 C 6.808594 -31.261719 6.945312 -27.039062 7.082031 -22.65625 L 22.6875 -22.664062 C 22.6875 -27.699219 22.367188 -32.730469 22.207031 -37.761719 C 22.476562 -44.597656 23.394531 -51.617188 24.804688 -58.324219 C 25.101562 -59.308594 25.230469 -60.289062 25.53125 -61.113281 C 25.660156 -62.089844 25.960938 -62.914062 26.101562 -63.566406 C 26.542969 -65.042969 27.15625 -66.203125 27.617188 -67.027344 C 27.933594 -67.363281 28.246094 -67.699219 28.410156 -67.703125 C 28.566406 -67.871094 28.886719 -68.042969 29.042969 -68.210938 C 29.207031 -68.21875 29.207031 -68.21875 29.367188 -68.222656 C 29.367188 -68.222656 29.535156 -68.066406 29.535156 -68.066406 C 29.703125 -67.90625 30.039062 -67.59375 30.214844 -67.113281 C 30.898438 -66.15625 31.429688 -64.710938 31.804688 -63.097656 C 32.1875 -61.324219 32.414062 -59.378906 32.636719 -57.4375 C 32.867188 -55.332031 32.933594 -53.21875 33.167969 -50.949219 L 33.707031 -44.140625 C 33.9375 -42.035156 34.171875 -39.769531 34.238281 -37.65625 C 34.457031 -35.875 34.507812 -34.253906 34.5625 -32.628906 C 34.816406 -29.710938 34.902344 -26.949219 35.148438 -24.359375 L 50.726562 -25.175781 C 50.476562 -27.933594 50.386719 -30.691406 50.136719 -33.449219 C 50.070312 -35.558594 50.011719 -37.507812 49.949219 -39.457031 C 49.871094 -41.890625 49.964844 -44.007812 50.054688 -46.285156 C 50.019531 -47.421875 50.152344 -48.402344 50.277344 -49.542969 C 50.261719 -50.03125 50.40625 -50.683594 50.390625 -51.171875 L 50.664062 -52.804688 C 50.910156 -55.253906 51.328125 -57.378906 51.75 -59.503906 C 52.171875 -61.632812 52.757812 -63.601562 53.351562 -65.40625 C 53.949219 -67.050781 54.882812 -68.382812 55.347656 -69.046875 C 55.664062 -69.382812 55.984375 -69.554688 56.140625 -69.722656 C 56.140625 -69.722656 56.300781 -69.726562 56.625 -69.738281 C 56.625 -69.738281 56.625 -69.738281 56.953125 -69.746094 C 57.117188 -69.589844 57.453125 -69.277344 57.953125 -68.964844 C 57.953125 -68.964844 58.117188 -68.808594 58.117188 -68.808594 C 58.285156 -68.652344 58.285156 -68.652344 58.453125 -68.496094 C 58.625 -68.175781 58.800781 -67.855469 59.132812 -67.539062 C 59.480469 -66.902344 59.832031 -66.101562 60.179688 -65.296875 C 61.042969 -63.699219 61.429688 -61.761719 61.824219 -59.660156 C 62.382812 -57.402344 62.617188 -55.136719 62.859375 -52.542969 C 63.988281 -42.664062 64.132812 -32.917969 63.636719 -22.984375 L 79.109375 -22.015625 C 79.90625 -32.765625 79.566406 -43.484375 78.414062 -54.175781 Z M 78.414062 -54.175781 "/></g></g></g><g fill="#000000" fill-opacity="1"><g transform="translate(217.282803, 304.227549)"><g><path d="M 53.226562 -59.0625 C 52.695312 -60.511719 52.164062 -61.792969 51.308594 -63.230469 C 50.960938 -63.867188 50.617188 -64.507812 50.109375 -65.140625 C 49.9375 -65.460938 49.761719 -65.78125 49.429688 -66.09375 L 48.742188 -67.210938 C 46.550781 -69.742188 43.882812 -71.769531 40.910156 -73.300781 C 37.941406 -74.671875 34.992188 -75.390625 31.730469 -75.773438 C 28.632812 -76 25.554688 -75.742188 22.496094 -74.832031 C 21.6875 -74.644531 21.042969 -74.460938 20.40625 -74.113281 C 20.332031 -76.386719 20.253906 -78.824219 20.34375 -81.101562 L 4.742188 -81.09375 C 4.738281 -65.816406 4.902344 -50.378906 5.394531 -34.953125 C 5.714844 -19.6875 6.367188 -4.265625 7.175781 10.988281 L 22.753906 10.167969 C 22.230469 -1.191406 21.703125 -12.714844 21.339844 -24.082031 C 21.839844 -23.773438 22.492188 -23.632812 22.984375 -23.484375 C 24.628906 -22.886719 26.910156 -22.796875 28.375 -22.679688 C 30 -22.730469 31.617188 -22.945312 33.234375 -23.160156 C 36.460938 -23.910156 39.347656 -25.140625 41.894531 -26.847656 C 44.609375 -28.394531 46.820312 -30.417969 48.699219 -32.75 C 50.578125 -34.925781 52.433594 -37.910156 53.316406 -40.863281 C 54.359375 -43.820312 54.914062 -46.925781 54.8125 -50.011719 C 54.714844 -53.097656 54.292969 -56.171875 53.226562 -59.0625 Z M 38.691406 -45.925781 C 38.238281 -44.773438 37.617188 -43.941406 36.675781 -42.773438 C 35.738281 -41.605469 34.632812 -40.59375 33.515625 -39.910156 C 32.402344 -39.222656 31.28125 -38.699219 30.148438 -38.503906 C 29.503906 -38.320312 29.015625 -38.304688 28.367188 -38.285156 C 28.207031 -38.277344 27.878906 -38.269531 27.714844 -38.425781 C 27.714844 -38.425781 27.550781 -38.421875 27.550781 -38.421875 C 27.386719 -38.414062 27.386719 -38.414062 27.226562 -38.410156 C 26.402344 -38.707031 25.246094 -39.320312 24.246094 -40.101562 C 23.242188 -41.046875 22.234375 -41.988281 21.550781 -43.105469 C 21.03125 -44.066406 20.839844 -45.035156 20.835938 -45.195312 L 20.671875 -45.191406 C 20.59375 -47.625 20.683594 -49.90625 20.613281 -52.179688 L 20.773438 -52.183594 C 20.890625 -53.648438 21.179688 -54.796875 21.636719 -55.785156 C 22.09375 -56.777344 22.722656 -57.445312 23.507812 -58.285156 C 23.988281 -58.460938 24.460938 -58.964844 25.105469 -59.148438 C 25.582031 -59.488281 26.226562 -59.671875 26.707031 -59.847656 C 27.835938 -60.210938 29.132812 -60.25 30.4375 -60.128906 C 33.046875 -59.886719 35.355469 -58.824219 36.707031 -57.238281 C 36.710938 -57.078125 36.710938 -57.078125 36.878906 -56.921875 C 36.882812 -56.757812 37.050781 -56.601562 37.21875 -56.445312 C 37.386719 -56.285156 37.558594 -55.964844 37.730469 -55.648438 C 38.078125 -55.007812 38.253906 -54.527344 38.4375 -53.882812 C 38.964844 -52.597656 39.175781 -51.140625 39.214844 -49.84375 C 39.257812 -48.542969 38.972656 -47.234375 38.691406 -45.925781 Z M 38.691406 -45.925781 "/></g></g></g><g fill="#000000" fill-opacity="1"><g transform="translate(294.415563, 305.867702)"><g><path d="M 39.632812 -36.691406 C 39.492188 -36.035156 39.1875 -35.375 38.722656 -34.710938 C 38.410156 -34.214844 37.941406 -33.710938 37.628906 -33.214844 C 37.152344 -32.875 36.839844 -32.539062 36.515625 -32.527344 C 36.519531 -32.367188 36.355469 -32.359375 36.195312 -32.355469 L 35.875 -32.183594 L 35.394531 -32.003906 C 35.070312 -31.996094 34.910156 -31.828125 34.75 -31.820312 L 34.105469 -31.640625 C 33.460938 -31.457031 32.648438 -31.429688 32 -31.410156 C 30.539062 -31.363281 29.066406 -31.640625 27.742188 -32.414062 C 26.257812 -33.015625 24.925781 -34.109375 23.910156 -35.378906 C 22.734375 -36.480469 21.871094 -38.078125 21.339844 -39.523438 C 21.167969 -39.84375 21.15625 -40.167969 21.144531 -40.492188 L 20.976562 -40.648438 C 20.972656 -40.8125 20.96875 -40.972656 20.964844 -41.136719 C 20.957031 -41.300781 20.949219 -41.625 20.773438 -41.945312 C 20.765625 -42.269531 20.753906 -42.59375 20.742188 -42.917969 C 27.386719 -43.617188 34.027344 -44.3125 40.675781 -44.851562 L 56.246094 -45.832031 C 56.195312 -47.457031 55.988281 -48.910156 55.773438 -50.53125 C 55.5625 -51.988281 55.191406 -53.4375 54.984375 -54.894531 C 54.246094 -57.632812 53.503906 -60.535156 52.433594 -63.589844 C 51.898438 -65.035156 51.199219 -66.640625 50.332031 -68.398438 C 49.996094 -68.714844 49.816406 -69.195312 49.476562 -69.671875 L 48.96875 -70.308594 L 48.796875 -70.625 L 48.625 -70.945312 C 47.953125 -71.574219 47.441406 -72.371094 46.769531 -73 C 45.589844 -74.425781 44.085938 -75.679688 42.261719 -76.757812 C 40.4375 -78 38.457031 -78.914062 36.332031 -79.332031 C 31.90625 -80.492188 27.855469 -80.039062 24.15625 -78.785156 C 22.222656 -78.234375 20.464844 -77.367188 18.707031 -76.335938 C 16.957031 -75.144531 15.535156 -73.960938 14.28125 -72.457031 C 11.609375 -69.609375 9.757812 -66.460938 8.554688 -63.335938 C 7.351562 -60.371094 6.304688 -57.414062 5.757812 -54.144531 C 5.207031 -51.039062 4.984375 -47.78125 5.082031 -44.695312 C 4.972656 -43.066406 5.1875 -41.449219 5.402344 -39.832031 C 5.417969 -39.34375 5.425781 -39.019531 5.597656 -38.699219 C 5.609375 -38.375 5.613281 -38.210938 5.621094 -38.050781 L 5.808594 -37.242188 C 6 -36.273438 6.195312 -35.304688 6.542969 -34.503906 C 7.800781 -30.804688 9.6875 -27.613281 12.210938 -24.929688 C 14.574219 -22.242188 17.574219 -19.898438 20.878906 -18.214844 C 24.339844 -16.699219 28.273438 -15.6875 32.167969 -15.8125 C 33.953125 -15.867188 35.898438 -16.09375 37.835938 -16.480469 L 39.125 -16.84375 C 39.605469 -17.023438 39.925781 -17.195312 40.414062 -17.210938 L 41.695312 -17.738281 L 42.335938 -18.085938 C 42.5 -18.089844 42.824219 -18.101562 42.980469 -18.265625 C 45.0625 -19.308594 46.96875 -20.667969 48.386719 -22.015625 C 49.964844 -23.527344 51.21875 -25.03125 52.140625 -26.683594 C 53.058594 -28.5 53.980469 -30.15625 54.574219 -31.964844 C 55.160156 -33.933594 55.585938 -35.894531 55.515625 -38.167969 L 40.0625 -38.492188 C 39.910156 -38.160156 39.9375 -37.351562 39.632812 -36.691406 Z M 25.511719 -61.761719 C 25.980469 -62.261719 26.617188 -62.769531 27.09375 -63.113281 C 27.730469 -63.457031 28.371094 -63.800781 29.015625 -63.984375 C 30.304688 -64.351562 31.765625 -64.398438 32.582031 -64.261719 C 33.40625 -63.960938 34.230469 -63.5 35.40625 -62.398438 C 35.738281 -62.085938 35.914062 -61.765625 36.246094 -61.453125 L 36.414062 -61.292969 C 36.421875 -61.132812 36.421875 -61.132812 36.421875 -61.132812 C 36.421875 -61.132812 36.421875 -61.132812 36.425781 -60.96875 C 36.585938 -60.972656 36.59375 -60.8125 36.761719 -60.65625 C 37.105469 -60.015625 37.457031 -59.214844 37.816406 -58.085938 C 37.816406 -58.085938 37.816406 -58.085938 37.820312 -57.925781 C 32.792969 -57.601562 27.609375 -57.113281 22.585938 -56.628906 C 22.742188 -56.796875 22.730469 -57.121094 22.882812 -57.453125 C 23.640625 -59.261719 24.566406 -60.753906 25.511719 -61.761719 Z M 25.511719 -61.761719 "/></g></g></g></svg>