<svg xmlns="http://www.w3.org/2000/svg" xmlns:xlink="http://www.w3.org/1999/xlink" width="800" zoomAndPan="magnify" viewBox="0 0 600 299.999988" height="400" preserveAspectRatio="xMidYMid meet" version="1.0"><defs><g/><clipPath id="aef0485936"><path d="M 99 49 L 188 49 L 188 109 L 99 109 Z M 99 49 " clip-rule="nonzero"/></clipPath><clipPath id="6162ad7855"><path d="M 90.507812 80.785156 L 132.527344 23.242188 L 196.730469 70.128906 L 154.710938 127.667969 Z M 90.507812 80.785156 " clip-rule="nonzero"/></clipPath><clipPath id="d41790239d"><path d="M 90.507812 80.785156 L 132.527344 23.242188 L 196.730469 70.128906 L 154.710938 127.667969 Z M 90.507812 80.785156 " clip-rule="nonzero"/></clipPath><clipPath id="f16f618738"><path d="M 90.507812 80.785156 L 132.527344 23.242188 L 196.730469 70.128906 L 154.710938 127.667969 Z M 90.507812 80.785156 " clip-rule="nonzero"/></clipPath></defs><g fill="#b7d4ff" fill-opacity="1"><g transform="translate(459.465965, 214.396442)"><g><path d="M 21.339844 -121.449219 L 3.570312 -121.070312 L 7.34375 -13.753906 L 25.101562 -14.503906 Z M 21.339844 -121.449219 "/></g></g></g><g fill="#000000" fill-opacity="1"><g transform="translate(61.152152, 188.719626)"><g><path d="M 40.402344 3.730469 L 42.886719 3.730469 C 48.015625 2.796875 52.679688 0.933594 53.300781 -4.816406 C 53.921875 -10.410156 50.347656 -13.828125 44.753906 -13.675781 C 39.160156 -13.675781 38.226562 -17.09375 38.070312 -21.132812 C 37.761719 -27.660156 37.449219 -34.1875 36.828125 -40.710938 C 36.207031 -47.550781 37.292969 -52.523438 45.996094 -52.832031 C 50.8125 -52.832031 54.078125 -56.5625 53.609375 -61.847656 C 53.300781 -66.820312 49.570312 -69.769531 44.753906 -69.460938 C 38.070312 -68.683594 36.050781 -71.480469 36.828125 -77.539062 C 37.140625 -79.40625 37.140625 -80.960938 36.828125 -82.667969 C 36.515625 -86.863281 34.03125 -89.351562 30.300781 -89.660156 C 25.796875 -90.128906 22.53125 -88.261719 21.132812 -83.910156 C 20.667969 -81.890625 20.355469 -79.5625 20.511719 -77.386719 C 20.824219 -70.703125 18.492188 -66.972656 11.03125 -66.507812 C 6.371094 -66.042969 2.953125 -63.246094 3.109375 -57.804688 C 3.261719 -52.832031 6.683594 -49.726562 11.65625 -50.035156 C 20.355469 -50.8125 20.355469 -45.375 20.511719 -39.46875 C 20.511719 -31.078125 20.511719 -22.6875 21.289062 -14.605469 C 22.996094 -3.109375 30.457031 3.417969 40.402344 3.730469 Z M 40.402344 3.730469 "/></g></g></g><g fill="#000000" fill-opacity="1"><g transform="translate(111.187651, 188.719626)"><g><path d="M 63.246094 7.457031 C 68.371094 6.058594 68.527344 1.398438 68.527344 -2.953125 C 68.371094 -11.808594 68.527344 -20.511719 68.527344 -29.214844 L 68.371094 -29.214844 L 68.371094 -52.679688 C 68.371094 -54.851562 68.371094 -57.183594 68.21875 -59.359375 C 67.59375 -64.332031 65.265625 -67.59375 60.136719 -67.75 C 54.851562 -68.21875 51.746094 -64.953125 51.125 -60.136719 C 50.347656 -55.941406 50.503906 -51.589844 50.191406 -47.238281 C 49.570312 -41.179688 48.792969 -35.117188 48.328125 -28.902344 C 47.859375 -25.949219 46.617188 -22.996094 44.910156 -20.511719 C 41.800781 -16.160156 37.761719 -14.761719 32.476562 -15.074219 C 27.347656 -15.226562 24.863281 -18.492188 23.464844 -22.84375 C 19.425781 -32.941406 20.511719 -43.511719 20.355469 -53.765625 C 20.355469 -60.914062 16.472656 -65.109375 11.5 -64.644531 C 5.75 -63.710938 3.574219 -59.980469 3.261719 -54.542969 C 3.109375 -44.910156 2.953125 -35.273438 4.816406 -25.949219 C 9.945312 -2.332031 21.597656 5.59375 44.910156 0.15625 C 48.328125 -0.464844 50.96875 -1.242188 52.679688 2.484375 C 54.542969 7.304688 58.425781 9.011719 63.246094 7.457031 Z M 63.246094 7.457031 "/></g></g></g><g clip-path="url(#aef0485936)"><g clip-path="url(#6162ad7855)"><g clip-path="url(#d41790239d)"><g clip-path="url(#f16f618738)"><path fill="#000000" d="M 186.941406 63.039062 C 187.816406 66.726562 186.988281 70.097656 185.433594 73.503906 C 181.734375 81.671875 178.328125 89.984375 174.652344 98.167969 C 173.410156 100.875 171.980469 103.472656 170.375 105.945312 C 168.910156 108.222656 166.691406 108.890625 164.785156 108.027344 C 162.816406 107.121094 161.761719 104.824219 162.804688 102.207031 C 164.523438 97.894531 166.648438 93.75 168.550781 89.503906 C 171.449219 83.070312 174.164062 76.570312 177.210938 70.25 C 178.972656 66.5625 181.777344 63.675781 185.753906 62.203125 Z M 99.515625 68.449219 C 99.21875 71.910156 99.75 75.246094 101.773438 78.085938 C 107.015625 85.421875 112.375 92.683594 117.84375 99.890625 C 118.910156 101.300781 120.289062 102.472656 121.84375 103.3125 C 122.875 103.863281 124.761719 104.015625 125.53125 103.417969 C 126.417969 102.707031 126.703125 100.992188 126.859375 99.683594 C 126.949219 98.921875 126.398438 97.988281 125.949219 97.230469 C 120.503906 88.351562 114.992188 79.519531 107.640625 72.0625 C 105.667969 70.058594 102.636719 69.105469 100.082031 67.671875 Z M 137.300781 56.679688 C 136.71875 65.828125 135.898438 74.9375 137.753906 84.078125 C 138.195312 86.257812 138.042969 88.566406 138.320312 90.789062 C 138.574219 92.765625 138.800781 94.785156 139.464844 96.660156 C 140.039062 98.339844 141.460938 99.445312 143.445312 99.105469 C 145.316406 98.78125 146.183594 97.359375 146.320312 95.667969 C 146.613281 92.074219 147.035156 88.4375 146.8125 84.863281 C 146.332031 77.71875 145.492188 70.609375 144.746094 63.507812 C 144.457031 60.710938 144.144531 57.898438 143.742188 55.117188 C 143.417969 52.960938 142.746094 50.910156 140.5625 49.613281 C 138.285156 51.5 137.46875 53.984375 137.300781 56.679688 Z M 137.300781 56.679688 " fill-opacity="1" fill-rule="nonzero"/></g></g></g></g><g fill="#f45c58" fill-opacity="1"><g transform="translate(191.523645, 215.042017)"><g><path d="M 64.816406 -47.253906 L 47.089844 -45.394531 C 47.125 -44.285156 46.976562 -43.167969 46.277344 -41.847656 C 45.765625 -40.535156 44.6875 -39.390625 43.601562 -38.613281 C 41.621094 -36.886719 38.300781 -36.410156 35.117188 -37.417969 C 33.4375 -37.921875 31.933594 -38.617188 30.601562 -39.683594 C 29.269531 -40.753906 28.121094 -42.015625 27.136719 -43.835938 C 24.988281 -47.285156 23.738281 -51.691406 23.40625 -56.3125 C 23.078125 -60.75 23.484375 -65.578125 24.839844 -69.511719 C 25.519531 -71.382812 26.386719 -73.265625 27.457031 -74.59375 C 28.519531 -76.109375 29.785156 -77.078125 31.058594 -77.859375 C 32.515625 -78.644531 33.984375 -79.0625 35.828125 -79.304688 C 36.011719 -79.3125 36.199219 -79.316406 36.382812 -79.324219 L 37.125 -79.347656 L 37.863281 -79.371094 L 38.046875 -79.375 C 38.425781 -79.203125 38.984375 -79.035156 39.730469 -78.875 C 41.050781 -78.175781 42.566406 -77.109375 43.527344 -76.03125 C 44.105469 -75.308594 44.492188 -74.765625 44.691406 -74.398438 C 44.695312 -74.214844 44.695312 -74.214844 44.886719 -74.035156 C 44.886719 -74.035156 44.890625 -73.851562 44.890625 -73.851562 C 44.890625 -73.851562 44.898438 -73.664062 44.898438 -73.664062 C 44.898438 -73.664062 44.898438 -73.664062 45.082031 -73.671875 L 62.640625 -74.96875 C 62.546875 -77.929688 61.542969 -80.304688 60.546875 -82.496094 C 59.367188 -84.683594 58.203125 -86.3125 56.671875 -87.933594 C 53.980469 -90.996094 50.757812 -93.300781 46.8125 -95.027344 C 44.933594 -95.894531 42.875 -96.570312 40.265625 -97.042969 L 39.339844 -97.015625 L 38.78125 -97.183594 L 38.410156 -97.167969 L 35.449219 -97.074219 C 35.078125 -97.0625 34.523438 -97.046875 33.96875 -97.027344 C 30.09375 -96.535156 26.054688 -95.480469 22.417969 -93.328125 C 18.773438 -91.359375 15.71875 -88.484375 13.226562 -85.257812 C 10.914062 -82.21875 9.167969 -78.832031 7.984375 -75.273438 C 6.796875 -71.902344 6.167969 -68.363281 5.71875 -65.011719 C 5.460938 -61.484375 5.378906 -58.148438 5.675781 -54.640625 C 6.261719 -47.804688 8.144531 -41.011719 11.867188 -34.644531 C 13.824219 -31.371094 16.328125 -28.304688 19.558594 -25.8125 C 22.785156 -23.320312 26.367188 -21.398438 30.109375 -20.21875 C 34.027344 -19.230469 38.117188 -18.804688 42.363281 -19.3125 C 44.386719 -19.746094 46.59375 -20.1875 48.605469 -20.992188 C 50.613281 -21.980469 52.617188 -22.972656 54.242188 -24.320312 C 56.054688 -25.671875 57.492188 -27.015625 58.917969 -28.726562 C 60.347656 -30.441406 61.40625 -32.140625 62.449219 -34.210938 C 64.183594 -37.972656 65.148438 -42.632812 64.816406 -47.253906 Z M 64.816406 -47.253906 "/></g></g></g><g fill="#afd480" fill-opacity="1"><g transform="translate(250.811192, 213.161538)"><g><path d="M 61.960938 -67.167969 C 61.785156 -72.71875 61.246094 -78.074219 60.703125 -83.429688 L 42.980469 -81.570312 C 44.050781 -71.230469 44.921875 -61.253906 43.734375 -51.957031 C 43.441406 -49.539062 43.140625 -47.304688 42.644531 -45.4375 C 42.304688 -44.5 42.140625 -43.753906 41.796875 -43.003906 C 41.449219 -42.25 41.097656 -41.683594 40.742188 -41.117188 C 40.035156 -40.167969 39.132812 -39.398438 37.859375 -38.617188 C 37.679688 -38.425781 37.308594 -38.414062 36.945312 -38.21875 L 36.398438 -38.015625 C 36.210938 -38.011719 36.027344 -38.003906 35.847656 -37.8125 C 35.296875 -37.609375 34.742188 -37.59375 34.003906 -37.570312 C 32.898438 -37.347656 31.777344 -37.683594 30.648438 -38.203125 C 29.519531 -38.722656 28.382812 -39.613281 27.421875 -40.695312 C 26.460938 -41.777344 25.863281 -43.054688 25.453125 -44.335938 C 25.261719 -44.515625 25.257812 -44.703125 25.25 -44.886719 L 25.246094 -45.070312 C 25.238281 -45.257812 25.054688 -45.25 25.046875 -45.4375 L 24.804688 -47.28125 C 24.582031 -48.386719 24.363281 -49.488281 24.136719 -50.777344 C 22.90625 -60.371094 22.773438 -70.371094 23.1875 -80.757812 L 5.386719 -81.304688 C 4.988281 -70.546875 4.960938 -59.617188 6.621094 -48.1875 C 6.847656 -46.894531 7.082031 -45.421875 7.3125 -43.949219 L 7.746094 -41.921875 C 7.753906 -41.738281 7.765625 -41.367188 7.769531 -41.183594 L 7.980469 -40.449219 L 8.390625 -39.164062 C 9.625 -35.316406 11.394531 -32.035156 13.894531 -29.152344 C 16.394531 -26.269531 19.4375 -23.769531 23.195312 -22.039062 C 26.769531 -20.296875 31.054688 -19.507812 35.121094 -19.824219 C 37.15625 -19.886719 39.179688 -20.320312 41.015625 -20.9375 C 41.570312 -20.953125 41.933594 -21.148438 42.484375 -21.351562 L 43.765625 -21.765625 C 44.679688 -22.164062 45.59375 -22.5625 46.316406 -23.140625 C 49.777344 -24.917969 53.027344 -27.613281 55.332031 -30.835938 C 56.390625 -32.539062 57.261719 -34.230469 58.136719 -35.925781 C 58.824219 -37.617188 59.324219 -39.300781 59.828125 -40.980469 C 60.652344 -44.15625 61.113281 -47.136719 61.394531 -49.921875 C 62.140625 -55.6875 62.136719 -61.617188 61.960938 -67.167969 Z M 61.960938 -67.167969 "/></g></g></g><g fill="#ec81a6" fill-opacity="1"><g transform="translate(308.723033, 225.654387)"><g><path d="M 89.363281 -61.738281 C 89.082031 -64.695312 88.613281 -67.828125 87.953125 -71.140625 C 87.476562 -74.460938 86.625 -77.953125 85.027344 -81.605469 C 84.234375 -83.25 83.25 -85.070312 82.082031 -86.886719 C 81.6875 -87.613281 80.917969 -88.515625 80.339844 -89.238281 C 79.953125 -89.78125 79.570312 -90.140625 79.183594 -90.683594 C 78.800781 -91.042969 78.417969 -91.398438 77.851562 -91.753906 C 76.132812 -93.363281 74.050781 -94.78125 71.609375 -95.816406 C 69.167969 -96.847656 66.371094 -97.5 63.414062 -97.222656 C 61.011719 -97.144531 58.25 -96.503906 55.882812 -95.316406 C 53.695312 -94.136719 51.707031 -92.589844 50.09375 -90.871094 C 49.382812 -89.921875 48.667969 -89.160156 47.957031 -88.210938 C 47.378906 -88.933594 46.609375 -89.835938 45.84375 -90.550781 C 44.132812 -91.980469 42.234375 -93.402344 39.792969 -94.433594 C 37.730469 -95.296875 35.3125 -95.589844 32.90625 -95.511719 C 31.796875 -95.476562 30.5 -95.4375 29.402344 -95.03125 C 28.484375 -94.816406 27.378906 -94.597656 26.464844 -94.199219 C 24.816406 -93.589844 23.542969 -92.808594 22.277344 -91.84375 C 22.195312 -94.433594 22.121094 -96.839844 22.222656 -99.433594 L 4.433594 -99.613281 C 4.285156 -86.824219 5.238281 -74.261719 6.183594 -62.066406 C 6.570312 -55.59375 7.148438 -49.128906 7.53125 -42.84375 C 7.371094 -42.097656 7.394531 -41.355469 7.417969 -40.617188 L 7.601562 -40.621094 C 7.761719 -35.625 7.914062 -30.816406 8.074219 -25.820312 L 25.855469 -25.828125 C 25.859375 -31.570312 25.492188 -37.300781 25.308594 -43.035156 C 25.617188 -50.824219 26.660156 -58.824219 28.269531 -66.46875 C 28.605469 -67.59375 28.753906 -68.707031 29.09375 -69.644531 C 29.246094 -70.761719 29.585938 -71.699219 29.746094 -72.445312 C 30.25 -74.128906 30.949219 -75.445312 31.476562 -76.390625 C 31.832031 -76.769531 32.191406 -77.152344 32.375 -77.160156 C 32.554688 -77.347656 32.921875 -77.546875 33.097656 -77.738281 C 33.285156 -77.742188 33.285156 -77.742188 33.46875 -77.75 C 33.46875 -77.75 33.660156 -77.570312 33.660156 -77.570312 C 33.851562 -77.390625 34.234375 -77.03125 34.4375 -76.484375 C 35.210938 -75.394531 35.820312 -73.75 36.246094 -71.910156 C 36.683594 -69.886719 36.9375 -67.671875 37.195312 -65.457031 C 37.453125 -63.054688 37.53125 -60.652344 37.796875 -58.066406 L 38.414062 -50.304688 C 38.675781 -47.90625 38.945312 -45.320312 39.019531 -42.914062 C 39.269531 -40.886719 39.328125 -39.035156 39.386719 -37.183594 C 39.675781 -33.859375 39.777344 -30.714844 40.054688 -27.757812 L 57.808594 -28.691406 C 57.523438 -31.832031 57.425781 -34.976562 57.140625 -38.117188 C 57.0625 -40.523438 56.992188 -42.746094 56.921875 -44.964844 C 56.835938 -47.742188 56.945312 -50.152344 57.046875 -52.75 C 57.003906 -54.042969 57.15625 -55.160156 57.300781 -56.460938 C 57.28125 -57.015625 57.441406 -57.761719 57.425781 -58.316406 L 57.738281 -60.179688 C 58.019531 -62.96875 58.496094 -65.390625 58.976562 -67.8125 C 59.457031 -70.238281 60.125 -72.480469 60.800781 -74.539062 C 61.480469 -76.414062 62.546875 -77.929688 63.078125 -78.6875 C 63.4375 -79.070312 63.800781 -79.265625 63.980469 -79.457031 C 63.980469 -79.457031 64.164062 -79.464844 64.535156 -79.476562 C 64.535156 -79.476562 64.535156 -79.476562 64.902344 -79.488281 C 65.09375 -79.308594 65.476562 -78.949219 66.042969 -78.597656 C 66.042969 -78.597656 66.234375 -78.417969 66.234375 -78.417969 C 66.425781 -78.238281 66.425781 -78.238281 66.617188 -78.058594 C 66.8125 -77.695312 67.011719 -77.332031 67.390625 -76.972656 C 67.785156 -76.242188 68.183594 -75.332031 68.585938 -74.417969 C 69.570312 -72.597656 70.007812 -70.386719 70.457031 -67.992188 C 71.09375 -65.421875 71.359375 -62.835938 71.640625 -59.878906 C 72.921875 -48.621094 73.089844 -37.511719 72.523438 -26.195312 L 90.15625 -25.085938 C 91.0625 -37.34375 90.675781 -49.554688 89.363281 -61.738281 Z M 89.363281 -61.738281 "/></g></g></g><g fill="#eeb13e" fill-opacity="1"><g transform="translate(395.514978, 213.164194)"><g><path d="M 60.660156 -67.3125 C 60.050781 -68.960938 59.449219 -70.421875 58.472656 -72.058594 C 58.078125 -72.785156 57.683594 -73.515625 57.105469 -74.238281 C 56.910156 -74.601562 56.710938 -74.964844 56.332031 -75.324219 L 55.550781 -76.597656 C 53.050781 -79.480469 50.011719 -81.792969 46.621094 -83.539062 C 43.238281 -85.097656 39.878906 -85.917969 36.160156 -86.355469 C 32.632812 -86.613281 29.121094 -86.316406 25.636719 -85.28125 C 24.714844 -85.066406 23.980469 -84.855469 23.253906 -84.464844 C 23.171875 -87.054688 23.082031 -89.832031 23.1875 -92.425781 L 5.402344 -92.417969 C 5.402344 -75.007812 5.589844 -57.414062 6.144531 -39.835938 C 6.511719 -22.433594 7.253906 -4.859375 8.175781 12.523438 L 25.929688 11.589844 C 25.335938 -1.359375 24.730469 -14.492188 24.320312 -27.445312 C 24.886719 -27.09375 25.632812 -26.929688 26.195312 -26.765625 C 28.070312 -26.082031 30.664062 -25.980469 32.335938 -25.847656 C 34.1875 -25.90625 36.03125 -26.148438 37.875 -26.394531 C 41.554688 -27.25 44.84375 -28.652344 47.746094 -30.597656 C 50.839844 -32.363281 53.359375 -34.664062 55.496094 -37.324219 C 57.640625 -39.800781 59.757812 -43.203125 60.761719 -46.570312 C 61.953125 -49.941406 62.582031 -53.480469 62.46875 -56.996094 C 62.355469 -60.511719 61.875 -64.015625 60.660156 -67.3125 Z M 44.09375 -52.339844 C 43.578125 -51.023438 42.867188 -50.078125 41.796875 -48.746094 C 40.730469 -47.414062 39.46875 -46.265625 38.199219 -45.484375 C 36.925781 -44.703125 35.648438 -44.105469 34.359375 -43.878906 C 33.625 -43.671875 33.070312 -43.652344 32.328125 -43.628906 C 32.144531 -43.625 31.773438 -43.613281 31.582031 -43.789062 C 31.582031 -43.789062 31.398438 -43.785156 31.398438 -43.785156 C 31.210938 -43.777344 31.210938 -43.777344 31.027344 -43.773438 C 30.089844 -44.113281 28.773438 -44.8125 27.632812 -45.703125 C 26.488281 -46.777344 25.339844 -47.851562 24.558594 -49.125 C 23.96875 -50.21875 23.75 -51.324219 23.742188 -51.507812 L 23.558594 -51.5 C 23.46875 -54.277344 23.574219 -56.875 23.492188 -59.464844 L 23.675781 -59.46875 C 23.808594 -61.140625 24.136719 -62.449219 24.65625 -63.578125 C 25.175781 -64.703125 25.894531 -65.46875 26.789062 -66.421875 C 27.339844 -66.625 27.875 -67.199219 28.609375 -67.40625 C 29.15625 -67.792969 29.890625 -68.003906 30.4375 -68.207031 C 31.722656 -68.617188 33.203125 -68.664062 34.6875 -68.527344 C 37.660156 -68.25 40.292969 -67.035156 41.832031 -65.234375 C 41.835938 -65.046875 41.835938 -65.046875 42.027344 -64.867188 C 42.035156 -64.683594 42.226562 -64.503906 42.417969 -64.324219 C 42.605469 -64.144531 42.804688 -63.78125 43 -63.417969 C 43.394531 -62.6875 43.597656 -62.140625 43.804688 -61.40625 C 44.40625 -59.941406 44.644531 -58.28125 44.691406 -56.804688 C 44.738281 -55.324219 44.417969 -53.832031 44.09375 -52.339844 Z M 44.09375 -52.339844 "/></g></g></g><g fill="#afd480" fill-opacity="1"><g transform="translate(483.418506, 215.033382)"><g><path d="M 45.167969 -41.8125 C 45.007812 -41.066406 44.660156 -40.316406 44.128906 -39.558594 C 43.773438 -38.992188 43.238281 -38.417969 42.886719 -37.851562 C 42.34375 -37.464844 41.984375 -37.082031 41.613281 -37.070312 C 41.621094 -36.886719 41.433594 -36.878906 41.25 -36.875 L 40.886719 -36.675781 L 40.335938 -36.472656 C 39.964844 -36.460938 39.785156 -36.269531 39.601562 -36.265625 L 38.867188 -36.058594 C 38.132812 -35.847656 37.207031 -35.820312 36.46875 -35.796875 C 34.800781 -35.742188 33.125 -36.058594 31.613281 -36.9375 C 29.925781 -37.625 28.40625 -38.875 27.246094 -40.320312 C 25.910156 -41.574219 24.925781 -43.394531 24.320312 -45.042969 C 24.121094 -45.40625 24.109375 -45.777344 24.097656 -46.148438 L 23.90625 -46.324219 C 23.902344 -46.511719 23.894531 -46.695312 23.890625 -46.882812 C 23.882812 -47.066406 23.871094 -47.4375 23.675781 -47.800781 C 23.664062 -48.171875 23.652344 -48.539062 23.640625 -48.910156 C 31.210938 -49.707031 38.78125 -50.503906 46.355469 -51.113281 L 64.101562 -52.230469 C 64.042969 -54.082031 63.804688 -55.742188 63.5625 -57.585938 C 63.324219 -59.246094 62.902344 -60.898438 62.664062 -62.558594 C 61.824219 -65.683594 60.976562 -68.988281 59.753906 -72.46875 C 59.148438 -74.117188 58.347656 -75.945312 57.359375 -77.949219 C 56.976562 -78.308594 56.773438 -78.859375 56.386719 -79.402344 L 55.808594 -80.125 L 55.609375 -80.488281 L 55.414062 -80.851562 C 54.648438 -81.570312 54.066406 -82.476562 53.300781 -83.195312 C 51.953125 -84.816406 50.242188 -86.246094 48.164062 -87.476562 C 46.082031 -88.890625 43.828125 -89.933594 41.402344 -90.410156 C 36.359375 -91.734375 31.746094 -91.214844 27.53125 -89.785156 C 25.328125 -89.160156 23.320312 -88.171875 21.320312 -86.996094 C 19.328125 -85.636719 17.703125 -84.289062 16.273438 -82.574219 C 13.230469 -79.328125 11.121094 -75.742188 9.75 -72.179688 C 8.375 -68.800781 7.1875 -65.429688 6.5625 -61.707031 C 5.933594 -58.167969 5.683594 -54.453125 5.792969 -50.9375 C 5.667969 -49.082031 5.910156 -47.238281 6.15625 -45.390625 C 6.171875 -44.835938 6.183594 -44.46875 6.382812 -44.101562 C 6.394531 -43.734375 6.398438 -43.546875 6.40625 -43.363281 L 6.617188 -42.445312 C 6.839844 -41.339844 7.058594 -40.234375 7.457031 -39.320312 C 8.890625 -35.105469 11.042969 -31.46875 13.917969 -28.410156 C 16.609375 -25.347656 20.027344 -22.679688 23.792969 -20.761719 C 27.738281 -19.03125 32.21875 -17.878906 36.660156 -18.019531 C 38.695312 -18.082031 40.910156 -18.339844 43.121094 -18.78125 L 44.589844 -19.195312 C 45.136719 -19.398438 45.5 -19.597656 46.058594 -19.613281 L 47.519531 -20.214844 L 48.25 -20.609375 C 48.433594 -20.617188 48.804688 -20.628906 48.984375 -20.816406 C 51.351562 -22.003906 53.527344 -23.554688 55.144531 -25.089844 C 56.941406 -26.8125 58.371094 -28.523438 59.421875 -30.410156 C 60.46875 -32.480469 61.519531 -34.367188 62.195312 -36.425781 C 62.863281 -38.671875 63.347656 -40.910156 63.265625 -43.5 L 45.660156 -43.867188 C 45.484375 -43.492188 45.515625 -42.566406 45.167969 -41.8125 Z M 29.070312 -70.386719 C 29.609375 -70.957031 30.332031 -71.535156 30.875 -71.925781 C 31.605469 -72.316406 32.332031 -72.710938 33.066406 -72.917969 C 34.535156 -73.335938 36.199219 -73.390625 37.132812 -73.234375 C 38.070312 -72.894531 39.011719 -72.367188 40.347656 -71.113281 C 40.730469 -70.753906 40.925781 -70.390625 41.308594 -70.03125 L 41.5 -69.851562 C 41.503906 -69.667969 41.503906 -69.667969 41.503906 -69.667969 C 41.503906 -69.667969 41.503906 -69.667969 41.511719 -69.484375 C 41.695312 -69.488281 41.703125 -69.304688 41.894531 -69.125 C 42.285156 -68.394531 42.6875 -67.484375 43.097656 -66.199219 C 43.097656 -66.199219 43.097656 -66.199219 43.101562 -66.015625 C 37.371094 -65.648438 31.464844 -65.089844 25.738281 -64.539062 C 25.917969 -64.726562 25.90625 -65.097656 26.078125 -65.472656 C 26.941406 -67.539062 27.996094 -69.238281 29.070312 -70.386719 Z M 29.070312 -70.386719 "/></g></g></g></svg>